<?xml version="1.0" encoding="UTF-8" standalone="no"?>
<!-- Created with Inkscape (http://www.inkscape.org/) -->

<svg
   xmlns:dc="http://purl.org/dc/elements/1.1/"
   xmlns:cc="http://creativecommons.org/ns#"
   xmlns:rdf="http://www.w3.org/1999/02/22-rdf-syntax-ns#"
   xmlns:svg="http://www.w3.org/2000/svg"
   xmlns="http://www.w3.org/2000/svg"
   xmlns:sodipodi="http://sodipodi.sourceforge.net/DTD/sodipodi-0.dtd"
   xmlns:inkscape="http://www.inkscape.org/namespaces/inkscape"
   id="svg3570"
   version="1.1"
   inkscape:version="0.48.4 r9939"
   width="460.68503"
   height="215.07683"
   xml:space="preserve"
   sodipodi:docname="logo-Fluisterbos-v2.pdf"><metadata
     id="metadata3576"><rdf:RDF><cc:Work
         rdf:about=""><dc:format>image/svg+xml</dc:format><dc:type
           rdf:resource="http://purl.org/dc/dcmitype/StillImage" /><dc:title></dc:title></cc:Work></rdf:RDF></metadata><defs
     id="defs3574"><clipPath
       clipPathUnits="userSpaceOnUse"
       id="clipPath3584"><path
         d="m 0,0 595.276,0 0,841.89 L 0,841.89 0,0 z"
         id="path3586"
         inkscape:connector-curvature="0" /></clipPath><clipPath
       clipPathUnits="userSpaceOnUse"
       id="clipPath3592"><path
         d="m 301.348,423.846 173.564,0 0,-15.36 -173.564,0 0,15.36 z"
         id="path3594"
         inkscape:connector-curvature="0" /></clipPath><clipPath
       clipPathUnits="userSpaceOnUse"
       id="clipPath3696"><path
         d="m 139.016,566.548 242.14,0 0,-98.261 -242.14,0 0,98.261 z"
         id="path3698"
         inkscape:connector-curvature="0" /></clipPath></defs><sodipodi:namedview
     pagecolor="#ffffff"
     bordercolor="#666666"
     borderopacity="1"
     objecttolerance="10"
     gridtolerance="10"
     guidetolerance="10"
     inkscape:pageopacity="0"
     inkscape:pageshadow="2"
     inkscape:window-width="640"
     inkscape:window-height="480"
     id="namedview3572"
     showgrid="false"
     fit-margin-top="10"
     fit-margin-left="10"
     fit-margin-right="10"
     fit-margin-bottom="10"
     inkscape:zoom="0.22425732"
     inkscape:cx="230.34301"
     inkscape:cy="24.323101"
     inkscape:window-x="0"
     inkscape:window-y="27"
     inkscape:window-maximized="0"
     inkscape:current-layer="g3578" /><g
     id="g3578"
     inkscape:groupmode="layer"
     inkscape:label="logo-Fluisterbos-v2"
     transform="matrix(1.25,0,0,-1.25,-141.70447,716.93496)"><g
       id="g3580"><g
         id="g3582"
         clip-path="url(#clipPath3584)"><g
           id="g3588"><g
             id="g3590" /><g
             id="g3596"><g
               clip-path="url(#clipPath3592)"
               id="g3598"><g
                 transform="translate(310.5574,419.4385)"
                 id="g3600"><path
                   d="m 0,0 c -0.174,0.774 -0.29,1.161 -0.542,1.548 -0.329,0.543 -0.736,0.717 -2.207,0.717 l -1.472,0 c -0.581,0 -0.639,-0.058 -0.639,-0.62 l 0,-4.607 1.995,0 c 1.762,0 1.858,0.173 2.09,1.432 l 0.562,0 0,-3.737 -0.562,0 c -0.232,1.336 -0.328,1.549 -2.09,1.549 l -1.995,0 0,-3.505 c 0,-1.665 0.155,-1.781 1.917,-1.897 l 0,-0.542 -5.267,0 0,0.542 c 1.55,0.116 1.704,0.232 1.704,1.897 l 0,7.726 c 0,1.665 -0.154,1.762 -1.645,1.879 l 0,0.541 8.519,0 C 0.387,2.226 0.484,1.007 0.562,0.077 L 0,0 z"
                   style="fill:#95b31b;fill-opacity:1;fill-rule:nonzero;stroke:none"
                   id="path3602"
                   inkscape:connector-curvature="0" /></g><g
                 transform="translate(331.1802,412.8355)"
                 id="g3604"><path
                   d="m 0,0 c -0.116,-0.638 -0.504,-2.458 -0.678,-3.059 l -9.332,0 0,0.542 c 1.762,0.135 1.916,0.29 1.916,1.879 l 0,7.705 c 0,1.724 -0.154,1.801 -1.665,1.918 l 0,0.541 8.635,0 c 0,-0.484 0.098,-1.801 0.156,-2.787 L -1.53,6.661 C -1.704,7.474 -1.898,7.9 -2.15,8.306 -2.421,8.732 -2.943,8.868 -4.337,8.868 l -1.472,0 c -0.6,0 -0.639,-0.058 -0.639,-0.62 l 0,-4.414 1.82,0 c 1.762,0 1.859,0.155 2.091,1.452 l 0.562,0 0,-3.698 -0.562,0 c -0.251,1.374 -0.387,1.491 -2.072,1.491 l -1.839,0 0,-3.66 c 0,-0.91 0.116,-1.336 0.465,-1.568 0.368,-0.252 1.045,-0.252 2.014,-0.252 1.471,0 2.013,0.155 2.439,0.659 0.329,0.387 0.697,1.065 0.968,1.82 L 0,0 z"
                   style="fill:#95b31b;fill-opacity:1;fill-rule:nonzero;stroke:none"
                   id="path3606"
                   inkscape:connector-curvature="0" /></g><g
                 transform="translate(350.9702,412.8355)"
                 id="g3608"><path
                   d="m 0,0 c -0.116,-0.638 -0.504,-2.458 -0.678,-3.059 l -9.332,0 0,0.542 c 1.762,0.135 1.916,0.29 1.916,1.879 l 0,7.705 c 0,1.724 -0.154,1.801 -1.665,1.918 l 0,0.541 8.635,0 c 0,-0.484 0.098,-1.801 0.156,-2.787 L -1.53,6.661 C -1.704,7.474 -1.898,7.9 -2.15,8.306 -2.421,8.732 -2.943,8.868 -4.337,8.868 l -1.472,0 c -0.6,0 -0.639,-0.058 -0.639,-0.62 l 0,-4.414 1.82,0 c 1.762,0 1.859,0.155 2.091,1.452 l 0.562,0 0,-3.698 -0.562,0 c -0.251,1.374 -0.387,1.491 -2.072,1.491 l -1.839,0 0,-3.66 c 0,-0.91 0.116,-1.336 0.465,-1.568 0.368,-0.252 1.045,-0.252 2.014,-0.252 1.471,0 2.013,0.155 2.439,0.659 0.329,0.387 0.697,1.065 0.968,1.82 L 0,0 z"
                   style="fill:#95b31b;fill-opacity:1;fill-rule:nonzero;stroke:none"
                   id="path3610"
                   inkscape:connector-curvature="0" /></g><g
                 transform="translate(367.5455,419.4385)"
                 id="g3612"><path
                   d="m 0,0 c -0.329,1.219 -0.852,2.555 -2.537,2.555 -1.49,0 -2.149,-1.064 -2.149,-2.11 0,-1.414 0.93,-2.091 2.459,-2.866 1.53,-0.794 3.35,-1.684 3.35,-3.872 0,-2.033 -1.723,-3.659 -4.299,-3.659 -0.793,0 -1.433,0.154 -1.897,0.29 -0.484,0.155 -0.775,0.309 -0.968,0.407 -0.135,0.406 -0.387,2.071 -0.523,3.001 l 0.581,0.135 c 0.29,-1.18 1.161,-3.136 3.175,-3.136 1.472,0 2.324,0.91 2.324,2.323 0,1.432 -1.065,2.111 -2.517,2.885 -1.239,0.678 -3.195,1.626 -3.195,3.815 0,1.858 1.491,3.446 3.989,3.446 0.89,0 1.704,-0.213 2.44,-0.445 C 0.31,2.091 0.407,1.316 0.561,0.097 L 0,0 z"
                   style="fill:#95b31b;fill-opacity:1;fill-rule:nonzero;stroke:none"
                   id="path3614"
                   inkscape:connector-curvature="0" /></g><g
                 transform="translate(388.8463,419.3607)"
                 id="g3616"><path
                   d="m 0,0 c -0.194,0.93 -0.388,1.414 -0.601,1.723 -0.328,0.465 -0.638,0.62 -2.11,0.62 l -1.355,0 0,-9.546 c 0,-1.529 0.155,-1.723 1.975,-1.839 l 0,-0.542 -5.538,0 0,0.542 c 1.762,0.116 1.917,0.31 1.917,1.839 l 0,9.546 -1.2,0 c -1.608,0 -1.995,-0.174 -2.247,-0.6 C -9.391,1.414 -9.546,0.852 -9.778,0 l -0.561,0 c 0.096,1.161 0.193,2.42 0.232,3.485 l 0.387,0 C -9.449,3.04 -9.197,3.001 -8.655,3.001 l 7.648,0 c 0.523,0 0.678,0.116 0.968,0.484 l 0.407,0 C 0.387,2.595 0.464,1.181 0.581,0.058 L 0,0 z"
                   style="fill:#95b31b;fill-opacity:1;fill-rule:nonzero;stroke:none"
                   id="path3618"
                   inkscape:connector-curvature="0" /></g><g
                 transform="translate(410.1263,413.068)"
                 id="g3620"><path
                   d="m 0,0 c -0.135,-0.697 -0.484,-2.497 -0.697,-3.292 l -10.01,0 -0.155,0.291 c 2.711,3.834 5.441,7.667 8.132,11.597 l -3.35,0 C -8.171,8.596 -8.48,8.423 -8.809,7.9 -9.042,7.552 -9.255,7.067 -9.487,6.215 l -0.561,0.02 c 0.096,1.219 0.193,2.672 0.231,3.543 l 0.465,0 c 0.233,-0.445 0.446,-0.484 1.027,-0.484 l 7.725,0 0.136,-0.272 c -2.692,-3.814 -5.344,-7.569 -7.997,-11.5 0.619,-0.078 1.82,-0.116 3.156,-0.116 2.42,0 3.137,0.135 3.679,0.716 0.406,0.426 0.716,1.046 1.065,1.995 L 0,0 z"
                   style="fill:#95b31b;fill-opacity:1;fill-rule:nonzero;stroke:none"
                   id="path3622"
                   inkscape:connector-curvature="0" /></g><g
                 transform="translate(427.6901,409.7765)"
                 id="g3624"><path
                   d="M 0,0 0,0.542 C 1.22,0.697 1.394,0.852 1.142,1.607 0.891,2.363 0.503,3.408 0.077,4.589 l -4.124,0 C -4.357,3.718 -4.647,2.904 -4.899,2.091 -5.305,0.871 -5.15,0.677 -3.679,0.542 l 0,-0.542 -4.221,0 0,0.542 c 1.239,0.174 1.511,0.29 2.169,2.014 l 4.007,10.145 0.601,0.175 C 0.077,9.565 1.374,5.867 2.614,2.497 3.214,0.832 3.485,0.659 4.744,0.542 L 4.744,0 0,0 z m -1.898,10.358 -0.039,0 C -2.556,8.713 -3.156,7.009 -3.756,5.422 l 3.563,0 -1.705,4.936 z"
                   style="fill:#95b31b;fill-opacity:1;fill-rule:nonzero;stroke:none"
                   id="path3626"
                   inkscape:connector-curvature="0" /></g><g
                 transform="translate(449.8617,409.7765)"
                 id="g3628"><path
                   d="M 0,0 0,0.542 C 1.22,0.697 1.394,0.852 1.142,1.607 0.891,2.363 0.503,3.408 0.077,4.589 l -4.124,0 C -4.357,3.718 -4.647,2.904 -4.899,2.091 -5.305,0.871 -5.15,0.677 -3.679,0.542 l 0,-0.542 -4.221,0 0,0.542 c 1.239,0.174 1.511,0.29 2.169,2.014 l 4.007,10.145 0.601,0.175 C 0.077,9.565 1.374,5.867 2.614,2.497 3.214,0.832 3.485,0.659 4.744,0.542 L 4.744,0 0,0 z m -1.898,10.358 -0.039,0 C -2.556,8.713 -3.156,7.009 -3.756,5.422 l 3.563,0 -1.705,4.936 z"
                   style="fill:#95b31b;fill-opacity:1;fill-rule:nonzero;stroke:none"
                   id="path3630"
                   inkscape:connector-curvature="0" /></g><g
                 transform="translate(473.9116,412.8166)"
                 id="g3632"><path
                   d="m 0,0 c -0.116,-0.601 -0.523,-2.439 -0.697,-3.04 l -8.771,0 0,0.542 c 1.626,0.116 1.781,0.252 1.781,1.897 l 0,7.746 c 0,1.645 -0.116,1.742 -1.704,1.858 l 0,0.542 5.054,0 0,-0.542 C -5.867,8.887 -6.041,8.81 -6.041,7.145 l 0,-7.649 c 0,-1.045 0.097,-1.433 0.445,-1.626 0.387,-0.213 1.046,-0.252 1.859,-0.252 1.065,0 1.723,0.097 2.169,0.6 0.348,0.388 0.697,1.008 0.987,1.898 L 0,0 z"
                   style="fill:#95b31b;fill-opacity:1;fill-rule:nonzero;stroke:none"
                   id="path3634"
                   inkscape:connector-curvature="0" /></g></g></g></g><g
           id="g3636"
           transform="translate(247.2899,525.6259)"><path
             d="m 0,0 c -0.382,-0.096 -0.387,-0.567 -0.951,-0.485 -0.161,0.202 0.195,0.444 -0.005,0.718 -0.664,-0.058 -0.831,-0.602 -1.346,-0.804 -0.004,0.209 -0.004,0.423 -0.006,0.635 -1.002,-0.209 -0.711,-2.072 -1.894,-1.843 -0.041,0.432 0.136,0.653 0.07,1.112 -0.026,0.263 -0.243,-0.312 -0.318,-0.003 -0.065,0.38 0.12,0.514 0.075,0.877 -1.039,0.204 -0.799,-0.849 -1.665,-0.807 -0.106,0.187 -0.039,0.548 -0.164,0.712 -0.482,0.053 -0.379,-0.469 -0.714,-0.562 -0.402,0.259 -0.413,0.914 -1.04,0.946 -0.094,-0.303 -0.149,-0.641 -0.311,-0.874 -0.175,1.043 0.037,2.304 0.533,2.943 0.167,-0.178 0.418,-0.272 0.799,-0.232 0.391,0.692 0.468,1.697 0.534,2.712 -0.258,0.135 -0.674,0.111 -0.718,0.468 0.201,0.54 0.634,0.847 0.783,1.439 -0.477,0.293 0.021,1.087 -0.25,1.589 -0.802,0.078 -0.73,-1.034 -1.426,-0.807 -0.042,0.437 0.079,1.043 -0.089,1.351 -0.47,0.058 -1.237,-0.188 -1.353,0.228 0.022,0.264 0.227,0.354 0.151,0.716 -0.384,0.146 -0.517,0.544 -0.958,0.629 -0.214,-0.658 -0.25,-1.487 -1.022,-1.597 -0.071,0.388 0.225,0.41 0.153,0.794 -0.371,-0.136 -0.623,0.327 -0.643,0.794 -0.398,-0.252 -1.069,-0.146 -1.59,-0.094 -0.096,-0.325 -0.2,-0.642 -0.309,-0.957 -0.175,0.065 -0.273,0.204 -0.559,0.156 -0.254,-0.646 -0.54,-1.256 -1.261,-1.439 -0.113,0.337 -0.101,0.801 -0.327,1.028 -0.365,-0.008 -0.512,-0.233 -0.953,-0.164 -0.103,0.768 0.322,1.405 0.225,1.91 -0.331,0.192 -0.669,-0.109 -0.876,0.152 -0.012,0.359 0.299,0.713 0.152,0.955 -0.296,0.216 -0.665,-0.045 -1.036,-0.008 0.185,0.317 0.308,0.696 0.39,1.118 -0.387,0.462 -0.813,0.883 -1.439,1.1 -0.235,-0.268 -0.284,-0.721 -0.63,-0.88 -0.119,0.094 -0.196,0.232 -0.4,0.235 -0.353,-0.414 -0.4,-1.129 -0.943,-1.358 -0.356,0.362 -0.764,0.669 -1.596,0.546 -0.12,0.251 -0.045,0.7 -0.166,0.951 -0.581,0.125 -0.617,-0.286 -1.112,-0.244 0.009,0.409 -0.108,0.689 -0.246,0.95 -0.477,-0.033 -0.621,-0.387 -1.189,-0.328 -0.111,0.156 -0.081,0.456 -0.165,0.638 -0.382,-0.206 -0.677,0.092 -1.112,0.067 -0.42,-0.167 -0.038,-1.118 -0.389,-1.352 -0.484,-0.02 -0.862,0.429 -1.355,0.146 -0.145,-0.791 0.895,-0.801 0.49,-1.585 -0.361,-0.102 -0.313,0.215 -0.639,0.155 -0.204,-0.717 -1.16,-0.697 -1.418,-1.365 0.312,-0.26 0.725,-0.415 1.059,-0.653 0.064,0.015 0.11,0.047 0.183,0.054 0.073,-0.099 0.08,-0.194 0.068,-0.287 0.129,-0.147 0.217,-0.337 0.255,-0.577 0.387,0.096 0.481,0.478 0.864,0.577 -0.093,-0.987 0.354,-2.157 0.123,-3.257 0.107,-0.165 0.467,0.25 0.887,0.104 -0.112,-0.808 0.45,-0.934 0.898,-1.176 0.062,-1.223 -0.152,-2.196 -0.966,-2.77 0.66,-0.445 -0.338,-1.959 0.609,-2.362 1.011,0.085 1.302,0.873 1.865,1.396 0.423,-0.336 0.87,-0.487 1.481,-0.186 -0.161,-1.096 -1.537,-1.522 0.41,-1.874 0.557,-2.022 -0.339,-2.99 -0.954,-4.346 -0.748,-0.045 -0.561,-1.013 -1.474,-0.899 -0.151,-0.435 -0.283,-0.896 -0.482,-1.287 -0.661,-0.009 -0.768,0.544 -1.386,0.584 -0.365,-0.165 -0.095,-0.952 -0.385,-1.19 -0.226,0.07 -0.506,0.085 -0.693,0.192 -0.246,-0.148 -0.341,-0.445 -0.487,-0.694 0.3,-0.324 0.665,-0.583 0.993,-0.879 1.364,0.841 3.349,1.076 3.627,2.985 1.131,-0.743 1.42,0.904 2.264,0.71 0.078,-0.565 -0.174,-0.805 -0.287,-1.185 0.677,-0.013 0.473,0.838 1.278,0.701 0.231,-0.303 0.002,-0.803 -0.092,-1.087 1.142,-0.423 1.636,0.597 2.861,0.414 0.015,-0.244 -0.156,-0.303 -0.196,-0.491 0.325,0.167 0.608,0.128 0.497,-0.393 0.31,-0.046 0.346,0.178 0.689,0.104 0.135,-0.622 -0.522,-0.466 -0.385,-1.089 0.539,0.117 1.434,1.462 2.557,0.711 -0.076,-1.228 -0.265,-3.113 0.526,-3.842 0.107,-0.498 -0.289,-0.502 -0.39,-0.793 0.135,-0.327 0.642,-0.277 0.893,-0.487 0.081,-0.668 -0.128,-1.052 -0.088,-1.676 0.853,-0.794 0.113,-1.439 0.019,-2.466 -1.672,-0.477 -2.019,-2.256 -2.634,-3.771 -0.673,-0.088 -0.765,0.419 -1.286,0.482 -0.975,-0.343 -1.525,-1.107 -1.858,-2.086 -0.82,-0.101 -1.153,0.289 -1.682,0.479 -0.716,-0.501 -1.518,-0.92 -2.656,-1.004 -0.091,0.435 -0.346,0.708 -0.697,0.883 -0.652,-0.341 -0.781,-1.853 -0.277,-2.47 0.438,0.124 0.656,0.464 1.28,0.405 -0.074,-0.569 0.13,-0.863 0.304,-1.181 0.558,0.258 1.834,0.732 2.367,0.118 -0.64,-1.623 -1.87,-2.665 -2.035,-4.754 -0.541,-0.072 -0.845,0.137 -1.105,0.373 0.534,-1.377 -0.236,-3.266 -0.371,-4.951 -0.222,-2.797 0.731,-9.042 0.876,-11.285 0.018,-0.284 -0.041,-0.5 -0.067,-0.744 1.561,0.058 3.122,0.129 4.684,0.184 -0.615,3.436 0.303,10.779 -0.097,13.398 -0.052,0.35 -0.343,0.692 -0.324,1.03 0.037,0.779 1.214,2.432 1.807,2.642 0.52,-0.168 0.194,-1.196 0.804,-1.268 0.356,0.231 0.265,0.899 0.87,0.88 0.276,-0.066 0.148,-0.542 0.403,-0.63 0.671,0.442 0.912,1.313 1.576,1.759 0.188,-0.29 0.129,-0.831 0.563,-0.871 0.616,0.104 0.392,1.039 1.187,0.964 0.08,-1.05 -0.11,-1.836 -0.778,-2.152 -0.046,0.221 0.002,0.536 -0.323,0.476 -0.218,-0.787 -0.85,-1.164 -0.857,-2.156 0.386,-0.066 0.406,0.229 0.793,0.163 0.443,-0.267 0.513,-0.922 0.49,-1.662 0.556,-0.103 0.637,0.267 1.032,0.323 0.403,-0.094 0.364,-0.642 0.642,-0.869 0.655,-0.09 0.442,0.674 1.029,0.643 0.131,-0.934 1.33,-0.783 1.129,-2.054 0.653,-0.041 0.68,0.537 1.348,0.48 0.085,-0.79 0.507,-1.245 1.206,-1.419 0.129,0.748 -0.424,0.801 -0.489,1.348 0.357,1.052 1.282,0.388 2.067,0.174 -0.114,0.824 0.398,1.032 0.863,1.28 0.286,-0.165 0.621,-0.277 1.117,-0.231 0.353,0.39 0.499,0.985 1.105,1.122 -0.04,0.779 0.563,0.922 0.784,1.443 0.058,-0.346 0.226,-0.573 0.561,-0.633 0.292,0.133 0.211,0.634 0.55,0.72 0.278,-0.236 0.408,-0.619 0.56,-0.979 L 0.53,-14.942 c -0.057,-0.032 -0.123,-0.055 -0.178,-0.089 -0.264,0.239 -0.558,0.449 -0.799,0.715 0.116,0.197 0.194,0.437 0.392,0.557 0.151,-0.086 0.377,-0.099 0.559,-0.154 0.003,10e-4 0.002,0.006 0.005,0.008 L 0.278,-2.597 C 0.208,-2.624 0.129,-2.667 0.099,-2.622 0.284,-1.739 -0.076,-0.796 0,0 m -29.759,-30.073 c -0.753,-0.177 -0.931,-0.912 -1.371,-1.392 -0.617,-0.064 -1.03,0.078 -1.383,0.284 -0.58,-0.313 -1.215,-0.567 -1.074,-1.588 -0.974,0.265 -2.121,1.089 -2.564,-0.215 0.077,-0.657 0.699,-0.759 0.604,-1.593 0.01,0.005 0.008,0.023 0.021,0.026 0.157,-0.163 0.251,-0.386 0.562,-0.394 0.79,0.768 1.859,-0.311 2.702,0.26 0.162,0.366 0.115,0.936 0.788,0.799 0.022,-0.273 0.128,-0.789 0.406,-1.03 0.661,0.194 1.155,0.546 1.663,0.888 0.173,0.409 0.034,1.123 0.466,1.276 0.234,-0.111 0.131,-0.562 0.482,-0.552 2.289,0.349 1.415,2.683 0.295,3.342 0.687,-0.201 1.072,0.168 1.472,0.515 -0.2,0.462 -0.359,0.964 -0.716,1.264 -0.424,-0.106 -0.323,-0.726 -0.684,-0.892 -0.415,0.076 -0.624,0.361 -0.697,0.785 -0.275,-0.643 -1.024,-0.819 -0.972,-1.783 m -2.827,37.962 c 0.068,0.187 0.146,0.363 0.149,0.608 -0.215,-0.006 -0.382,0.037 -0.516,0.112 -0.04,-0.222 -0.085,-0.439 -0.059,-0.725 0.165,-0.032 0.302,-0.022 0.426,0.005 m -0.622,1.27 c 0.009,0.155 0.005,0.324 0.047,0.45 -0.056,0.005 -0.086,-0.015 -0.135,-0.017 -0.015,-0.102 -0.046,-0.188 -0.022,-0.328 0.026,-0.108 0.066,-0.123 0.11,-0.105 m -2.084,0.19 c 0.31,-0.015 0.498,0.09 0.65,0.23 -0.051,0.258 -0.134,0.483 -0.274,0.651 -0.263,0.111 -0.433,0.076 -0.579,-0.001 0.154,-0.207 0.072,-0.654 0.203,-0.88 m -1.086,0.186 c 0.105,0.03 0.175,0.095 0.231,0.173 -0.083,-0.052 -0.16,-0.112 -0.275,-0.123 -0.287,0.109 -0.2,0.594 -0.482,0.708 -0.029,0.004 -0.037,-0.012 -0.062,-0.011 0.183,-0.261 0.318,-0.572 0.588,-0.747 m -0.661,-42.428 c -0.829,0.067 -0.862,-0.651 -1.672,-0.607 0.06,0.382 0.011,0.652 -0.088,0.872 -0.098,-0.286 -0.168,-0.6 -0.154,-0.997 0.44,-0.381 1.003,-0.638 1.283,-1.181 0.732,0.247 1.281,-0.289 1.83,-0.306 0.098,0.143 0.121,0.362 0.246,0.479 -0.828,0.231 -1.341,0.777 -1.445,1.74 m -1.018,42.514 c 0.067,0.095 0.105,0.219 0.149,0.337 -0.031,0.068 -0.111,0.087 -0.182,0.115 0.012,-0.151 0.009,-0.307 0.033,-0.452 m -2.337,-41.984 c 0.174,0.322 0.399,0.541 0.651,0.713 -0.179,0.179 -0.325,0.39 -0.369,0.707 -0.731,0.031 -0.466,-0.911 -1.275,-0.799 -0.346,0.28 -0.298,0.958 -0.798,1.078 -0.49,-0.073 -0.587,-0.532 -1.281,-0.405 0.028,0.925 -0.059,1.729 -0.608,2.069 -0.48,0.081 -0.505,-0.286 -0.983,-0.206 0.01,1.23 0.793,1.698 1.064,2.673 0.403,0.078 0.343,-0.316 0.399,-0.589 0.829,0.392 1.065,1.362 0.966,2.671 -0.987,0.09 -0.708,-1.066 -1.472,-1.198 -0.538,0.05 -0.466,0.72 -0.697,1.081 -0.826,-0.557 -1.124,-1.632 -1.958,-2.187 -0.315,0.111 -0.156,0.707 -0.499,0.788 -0.751,0.022 -0.636,-0.807 -1.077,-1.094 -0.759,0.092 -0.353,1.364 -0.998,1.571 -0.436,-0.154 -1.098,-0.934 -1.597,-1.744 -0.002,-0.094 -0.003,-0.188 -0.004,-0.281 0.249,-0.014 0.583,0.06 0.719,-0.071 0.054,-0.29 0.112,-0.576 0.086,-0.955 0.662,0.006 0.548,0.774 1.104,0.886 0.004,-0.346 0.005,-0.691 0.009,-1.038 0.556,0.034 0.763,0.409 1.27,0.49 0.272,-0.257 0.583,-0.477 0.958,-0.629 -0.572,-0.554 -0.18,-1.552 0.412,-1.826 0.644,-0.007 0.604,0.669 1.188,0.725 -0.099,-0.659 -0.774,-1.441 -0.302,-2.15 0.606,-0.071 0.585,0.475 1.028,0.563 0,-0.534 0.334,-0.727 0.645,-0.948 0.548,0.092 0.713,0.561 1.267,0.647 0.064,-0.363 0.031,-0.827 0.405,-0.874 0.441,0.364 1.306,1.338 1.747,0.332 m 48.691,8.329 c 0.204,-0.027 0.327,-0.137 0.461,-0.234 l -0.058,2.9 c -0.028,1.345 -1.141,2.415 -2.485,2.389 -0.661,-0.015 -1.249,-0.295 -1.679,-0.729 -0.42,-0.449 -0.676,-1.051 -0.662,-1.714 l 0.091,-4.564 c 0.566,0.146 1.061,0.365 1.477,0.656 0.427,-0.155 0.693,-0.47 1.355,-0.387 0.27,0.789 0.713,1.402 1.5,1.683 m -33.998,-5.591 c 0.555,0.148 0.635,0.761 0.849,1.242 -0.033,0 -0.052,0.026 -0.087,0.021 -0.522,-0.055 -0.624,-0.499 -0.84,-0.898 0.047,-0.1 0.079,-0.215 0.078,-0.365"
             style="fill:#c8d67d;fill-opacity:1;fill-rule:nonzero;stroke:none"
             id="path3638"
             inkscape:connector-curvature="0" /></g><g
           id="g3640"
           transform="translate(189.8535,498.3207)"><path
             d="M 0,0 C 0.083,0.205 0.158,0.418 0.235,0.629 0.165,1.265 -0.032,1.851 -0.479,2.34 -0.792,2.386 -0.826,2.161 -1.17,2.237 -1.451,1.636 -1.537,0.835 -2.243,0.65 c 0.002,0.363 -0.155,0.573 -0.3,0.788 -1.012,-0.253 -1.421,-1.599 -2.756,-1.207 0.44,-0.257 0.833,-0.731 1.098,-1.262 0.053,0.035 0.117,0.059 0.168,0.095 0.443,-0.161 0.721,-0.487 1.404,-0.401 0.28,0.815 0.74,1.454 1.555,1.744 C -0.637,0.35 -0.563,-0.073 0,0 m -4.498,-3.427 c -0.28,-0.222 -0.634,-0.407 -1.163,-0.487 -0.437,-0.012 -0.311,0.544 -0.596,0.688 -0.536,-0.192 -0.367,-1.078 -0.58,-1.584 -0.63,-0.426 -1.246,-0.862 -2.064,-1.102 -0.344,0.297 -0.476,0.936 -0.503,1.277 -0.833,0.17 -0.776,-0.537 -0.979,-0.995 -1.044,-0.704 -2.369,0.636 -3.351,-0.319 -0.383,0.01 -0.501,0.285 -0.695,0.488 -0.284,-0.079 -0.243,-0.48 -0.389,-0.693 -0.683,0.02 -1.363,0.683 -2.272,0.374 -0.347,0.677 -1.044,0.999 -1.59,1.47 -0.049,1.354 0.544,2.074 1.163,2.772 -1.391,0.278 -2.35,-0.092 -2.951,-1.21 -0.549,1.252 -1.621,0.04 -2.167,-0.406 -0.465,0.055 -0.424,0.63 -0.502,1.077 -0.688,-0.103 -0.893,-0.685 -1.572,-0.801 -0.385,0.274 -0.8,0.515 -0.798,1.179 -0.551,-0.108 -0.528,-0.785 -1.277,-0.7 -0.585,0.881 0.251,1.851 0.374,2.666 -0.725,-0.069 -0.674,-0.904 -1.473,-0.901 -0.734,0.344 -1.222,1.578 -0.512,2.267 -0.464,0.189 -0.85,0.462 -1.19,0.779 -0.628,-0.1 -0.885,-0.562 -1.573,-0.603 -0.003,0.427 -0.006,0.856 -0.01,1.282 -0.691,-0.133 -0.55,-1.089 -1.373,-1.096 0.036,0.467 -0.038,0.824 -0.108,1.184 -0.164,0.164 -0.58,0.075 -0.888,0.092 0.005,0.832 0.106,1.763 -0.607,1.87 0.453,0.825 -0.115,1.71 -0.217,2.563 0.131,0.165 0.559,0.038 0.689,0.201 -0.132,0.398 -0.262,0.797 -0.207,1.382 0.392,0.493 0.829,0.943 1.47,1.195 0.37,-0.023 0.635,-0.15 0.791,-0.391 0.788,0.698 1.978,0.993 3.545,0.914 0.784,0.469 -0.074,1.709 0.277,2.571 1.007,-0.177 1.218,0.43 1.87,0.605 1.031,-0.81 2.132,-1.548 3.47,-2.045 0.552,0.434 0.361,1.604 0.872,2.08 0.352,0.057 0.476,-0.112 0.691,-0.19 0.26,0.784 0.411,1.681 0.87,2.272 -0.079,0.451 -0.672,0.377 -0.795,0.785 -0.935,-0.353 -1.789,-0.787 -2.158,-1.697 -0.709,0.408 -2.049,0.174 -2.669,0.67 -0.043,0.7 0.209,1.102 0.483,1.487 -0.333,0.292 -0.643,0.606 -0.994,0.879 -0.63,-0.521 -0.257,-2.032 -0.768,-2.67 -1.229,0.231 -1.397,-0.583 -2.064,-0.901 -0.29,0.135 -0.525,0.327 -0.501,0.784 -0.432,0.065 -0.205,-0.517 -0.49,-0.597 -1.646,-0.215 -1.39,1.504 -2.479,1.855 0.066,0.363 0.164,0.752 -0.008,1.085 -0.115,-0.017 -0.176,0.02 -0.199,0.099 -0.987,-0.235 -1.497,-0.942 -1.961,-1.694 -0.652,0.261 -1.249,0.204 -1.675,-0.208 -0.66,0.189 -0.933,0.773 -1.487,1.072 -0.049,0.98 0.139,2.197 -0.317,2.762 -0.583,-0.014 -0.895,-0.295 -1.578,-0.212 -0.192,0.931 -0.048,2.207 -0.318,3.058 0.583,0.095 0.718,-0.264 1.088,-0.389 0.48,0.351 -0.077,1.117 0.085,1.778 0.229,0.233 0.638,0.287 0.883,0.501 -0.304,1.048 -1.693,0.998 -1.499,2.553 -0.168,0.154 -0.935,-0.332 -1.283,-0.008 -0.04,1.277 0.931,1.564 1.163,2.573 0.577,0.053 0.713,-0.34 1.188,-0.386 0.241,0.675 -0.785,1.234 -0.41,2.068 0.263,0.003 0.527,0.005 0.788,0.007 -0.012,0.405 -0.025,0.809 0.091,1.084 0.666,0.115 0.947,-0.164 1.385,-0.283 0.643,0.115 0.456,1.052 0.876,1.385 0.377,0.021 0.719,0.004 0.889,-0.189 0.306,0.189 0.378,0.608 0.486,0.99 0.521,0.034 0.525,-0.46 0.891,-0.583 0.467,0.486 0.543,1.356 1.471,1.393 -0.343,0.468 -0.933,1.214 -0.21,1.672 1.812,-0.212 3.997,0.172 5.268,-0.652 0.03,0.16 0.044,0.311 0.017,0.452 -0.342,0.197 -0.694,-0.115 -0.909,0.159 -0.011,0.369 0.311,0.736 0.157,0.986 -0.307,0.222 -0.69,-0.044 -1.071,-0.005 0.193,0.328 0.32,0.722 0.402,1.157 -0.398,0.479 -0.844,0.919 -1.492,1.143 -0.244,-0.28 -0.293,-0.747 -0.654,-0.913 -0.122,0.094 -0.203,0.237 -0.414,0.244 -0.366,-0.433 -0.414,-1.178 -0.978,-1.41 -0.367,0.374 -0.791,0.69 -1.652,0.563 -0.127,0.262 -0.05,0.731 -0.175,0.988 -0.603,0.134 -0.638,-0.296 -1.15,-0.254 0.008,0.426 -0.112,0.72 -0.256,0.987 -0.495,-0.032 -0.645,-0.399 -1.235,-0.338 -0.113,0.161 -0.081,0.468 -0.17,0.658 -0.395,-0.213 -0.7,0.1 -1.155,0.075 -0.433,-0.174 -0.036,-1.164 -0.401,-1.406 -0.501,-0.018 -0.894,0.45 -1.403,0.155 -0.151,-0.821 0.927,-0.832 0.507,-1.647 -0.374,-0.103 -0.325,0.222 -0.66,0.16 -0.214,-0.743 -1.205,-0.722 -1.472,-1.413 0.598,-0.498 1.596,-0.593 1.661,-1.636 -0.207,-0.476 -1.04,-0.792 -1.483,-0.342 -0.165,-0.381 -0.526,-0.573 -0.901,-0.748 -0.082,0.169 -0.318,0.173 -0.578,0.157 -0.585,-0.213 -0.634,-0.958 -1.227,-1.162 -0.055,0.519 0.231,0.701 0.238,1.155 -0.423,-0.011 -0.685,0.137 -0.828,0.41 -0.028,0.301 0.009,0.537 0.078,0.743 -0.767,0.07 -0.812,-0.57 -1.48,-0.591 0.026,0.553 -0.102,0.949 -0.341,1.236 -0.863,0.364 -0.882,-0.606 -1.561,-0.671 -0.298,0.11 -0.209,0.618 -0.499,0.737 -0.687,0.102 -0.467,-0.688 -0.986,-0.749 0,0.302 -0.041,0.565 -0.335,0.573 -0.314,-0.728 -1.315,-0.776 -1.719,-1.417 0.226,-0.185 0.238,-0.812 -0.075,-0.905 -0.634,-0.004 -1.265,-0.01 -1.897,-0.016 0.111,-1.117 -0.91,-1.121 -0.806,-2.234 0.432,-0.478 0.986,-0.746 0.916,-1.393 -0.046,-0.437 -0.83,-0.68 -0.567,-1.324 0.542,-0.35 1.023,-1.067 0.758,-1.971 0.647,-0.453 1.581,-0.611 2.071,-1.222 -0.491,-0.336 -0.021,-0.965 0.255,-1.236 0.659,0.261 1.769,-0.282 2.225,0.266 0.179,-0.652 1.235,-0.409 1.655,-0.814 -0.037,-0.401 0.124,-0.994 -0.156,-1.154 -0.551,0.265 -1.485,0.155 -2.061,-0.017 -0.124,-0.834 -0.845,-1.078 -1.224,-1.661 -0.411,0.221 -1.055,0.206 -1.242,0.652 0.084,0.235 0.083,0.345 -0.004,0.579 -0.276,0.358 -0.875,0.384 -0.752,1.149 -0.718,0.198 -1.566,0.325 -2.225,-0.019 -0.008,0.131 0.009,0.286 -0.167,0.246 -0.729,-0.018 -1.243,0.179 -1.898,0.234 -0.666,1.837 -3.164,1.214 -5.123,1.444 -0.604,-0.382 -0.112,-1.007 0.175,-1.4 -0.776,-0.026 -0.838,-0.757 -1.227,-1.165 -0.306,0.105 -0.311,0.516 -0.746,0.492 -0.09,-0.322 -0.153,-0.672 -0.406,-0.826 -0.144,0.155 -0.429,0.173 -0.743,0.154 -0.352,-0.279 -0.194,-1.059 -0.735,-1.156 -0.365,0.096 -0.599,0.329 -1.156,0.236 -0.097,-0.235 -0.086,-0.568 -0.075,-0.905 -0.219,-0.007 -0.44,-0.005 -0.659,-0.007 -0.311,-0.698 0.543,-1.166 0.341,-1.733 -0.397,0.043 -0.508,0.371 -0.991,0.324 -0.194,-0.842 -1.006,-1.083 -0.974,-2.151 0.293,-0.268 0.934,0.141 1.073,0.01 -0.161,-1.302 1,-1.259 1.254,-2.135 -0.207,-0.178 -0.547,-0.221 -0.738,-0.418 -0.137,-0.55 0.331,-1.194 -0.071,-1.483 -0.309,0.101 -0.421,0.4 -0.911,0.32 0.227,-0.71 0.105,-1.774 0.269,-2.554 0.569,-0.073 0.828,0.166 1.315,0.177 0.383,-0.47 0.227,-1.492 0.268,-2.307 0.462,-0.251 0.691,-0.739 1.242,-0.897 0.356,0.343 0.854,0.39 1.402,0.173 0.386,0.629 0.812,1.219 1.637,1.416 0.019,-0.065 0.069,-0.094 0.166,-0.083 0.143,-0.277 0.062,-0.604 0.007,-0.904 0.912,-0.295 0.696,-1.735 2.073,-1.554 0.237,0.07 0.047,0.555 0.409,0.499 -0.022,-0.378 0.176,-0.54 0.417,-0.656 0.56,0.268 0.698,0.95 1.725,0.754 0.426,0.537 0.115,1.797 0.643,2.238 0.292,-0.234 0.554,-0.497 0.829,-0.742 -0.225,-0.318 -0.438,-0.655 -0.402,-1.24 0.518,-0.414 1.638,-0.22 2.23,-0.559 0.31,0.761 1.023,1.123 1.804,1.415 0.103,-0.334 0.6,-0.279 0.667,-0.652 -0.386,-0.497 -0.511,-1.246 -0.73,-1.903 -0.178,0.065 -0.28,0.211 -0.578,0.157 -0.425,-0.397 -0.268,-1.371 -0.729,-1.733 -1.117,0.415 -2.037,1.029 -2.9,1.707 -0.543,-0.149 -0.72,-0.653 -1.561,-0.505 -0.294,-0.722 0.423,-1.758 -0.229,-2.15 -1.314,0.067 -2.308,-0.184 -2.965,-0.762 -0.132,0.199 -0.353,0.309 -0.662,0.323 -0.536,-0.208 -0.9,-0.583 -1.231,-0.999 -0.045,-0.486 0.065,-0.819 0.175,-1.149 -0.108,-0.143 -0.467,-0.033 -0.576,-0.172 0.085,-0.709 0.559,-1.453 0.182,-2.141 0.595,-0.087 0.51,-0.867 0.506,-1.562 0.259,-0.017 0.605,0.059 0.744,-0.08 0.057,-0.299 0.119,-0.598 0.09,-0.988 0.688,0.005 0.57,0.804 1.147,0.917 0.002,-0.358 0.006,-0.713 0.007,-1.073 0.576,0.035 0.792,0.423 1.316,0.504 0.283,-0.261 0.607,-0.49 0.994,-0.65 -0.593,-0.578 -0.185,-1.608 0.427,-1.895 0.669,0.002 0.626,0.697 1.231,0.754 -0.102,-0.684 -0.8,-1.494 -0.312,-2.228 0.628,-0.071 0.608,0.493 1.068,0.584 0,-0.556 0.345,-0.758 0.667,-0.985 0.569,0.097 0.74,0.581 1.313,0.671 0.066,-0.38 0.032,-0.855 0.422,-0.907 0.455,0.379 1.352,1.391 1.809,0.346 0.503,0.931 1.305,1.244 2.466,1.009 -0.515,-0.583 -1.01,-1.189 -0.97,-2.316 0.455,-0.393 1.04,-0.662 1.328,-1.228 0.759,0.256 1.329,-0.297 1.898,-0.313 0.125,0.177 0.089,0.509 0.327,0.577 0.16,-0.168 0.261,-0.4 0.58,-0.407 0.822,0.798 1.929,-0.318 2.801,0.27 0.169,0.378 0.12,0.973 0.819,0.829 0.022,-0.286 0.133,-0.818 0.421,-1.067 0.683,0.197 1.197,0.564 1.723,0.921 0.18,0.422 0.037,1.165 0.486,1.323 0.239,-0.119 0.132,-0.588 0.496,-0.574 2.374,0.358 1.467,2.786 0.305,3.465 1.115,-0.327 1.458,0.797 2.301,1.007 0.122,-0.178 0.253,-0.355 0.251,-0.657 0.591,0.159 0.661,0.821 0.899,1.325 0.287,-0.063 0.316,0.128 0.577,0.088 1.309,-1.435 0.208,-3.795 0.043,-5.854 -0.231,-2.895 0.76,-9.374 0.909,-11.7 0.118,-1.848 -0.752,-2.796 -1.522,-4.015 0.088,0.017 0.176,0.036 0.264,0.053 2.351,0.46 4.711,0.868 7.074,1.253 -0.222,0.247 -0.445,0.492 -0.606,0.766 -1.402,2.395 -0.044,12.11 -0.523,15.252 -0.056,0.363 -0.357,0.719 -0.339,1.069 0.042,0.803 1.26,2.52 1.876,2.737 0.538,-0.175 0.2,-1.238 0.835,-1.315 0.368,0.239 0.272,0.935 0.898,0.917 0.288,-0.073 0.155,-0.567 0.419,-0.659 0.698,0.461 0.946,1.362 1.636,1.83 0.192,-0.304 0.134,-0.865 0.582,-0.905 0.638,0.108 0.405,1.074 1.232,1.002 0.083,-1.094 -0.116,-1.909 -0.808,-2.234 -0.049,0.228 0.002,0.558 -0.334,0.491 -0.228,-0.815 -0.88,-1.208 -0.89,-2.235 0.4,-0.066 0.422,0.24 0.822,0.173 0.459,-0.284 0.533,-0.958 0.508,-1.728 0.579,-0.105 0.661,0.276 1.07,0.34 0.42,-0.103 0.378,-0.669 0.667,-0.905 0.678,-0.095 0.457,0.697 1.066,0.67 0.136,-0.969 1.38,-0.813 1.172,-2.135 0.677,-0.037 0.703,0.561 1.397,0.505 0.09,-0.827 0.525,-1.294 1.251,-1.475 0.132,0.773 -0.442,0.828 -0.509,1.398 0.371,1.087 1.33,0.403 2.144,0.181 -0.118,0.853 0.413,1.066 0.897,1.325 0.295,-0.169 0.641,-0.287 1.156,-0.237 0.367,0.402 0.518,1.015 1.146,1.163 -0.044,0.806 0.581,0.954 0.812,1.489 0.062,-0.354 0.236,-0.593 0.583,-0.654 0.302,0.14 0.218,0.66 0.571,0.748 0.386,-0.329 0.474,-0.959 0.754,-1.396 0.863,0.187 0.589,1.168 1.309,1.247 0.734,0.079 0.795,-0.952 1.82,-0.81 0.137,1.747 1.165,2.616 1.7,3.969 -0.172,0.199 -0.445,0.239 -0.732,0.229 m -12.503,37.31 c 0.149,0.045 0.356,0.055 0.535,0.089 -0.014,0.068 -0.01,0.142 -0.043,0.203 -0.829,0.086 -0.755,-1.067 -1.475,-0.833 -0.045,0.452 0.082,1.079 -0.093,1.401 -0.486,0.06 -1.282,-0.194 -1.405,0.237 0.026,0.277 0.236,0.368 0.159,0.744 -0.401,0.148 -0.534,0.562 -0.993,0.651 -0.197,-0.603 -0.28,-1.319 -0.844,-1.561 0.102,-0.025 0.207,-0.044 0.305,-0.071 -0.15,-0.915 0.57,-0.946 0.899,-1.377 0.104,-0.278 0.105,-0.41 0.005,-0.689 0.224,-0.535 0.994,-0.514 1.485,-0.778 0.455,0.696 1.316,0.991 1.465,1.984 m -4.348,0.975 c 0.028,0.244 0.193,0.354 0.131,0.688 -0.384,-0.144 -0.646,0.335 -0.667,0.819 -0.411,-0.264 -1.11,-0.153 -1.647,-0.095 -0.1,-0.34 -0.209,-0.667 -0.323,-0.995 -0.178,0.067 -0.282,0.213 -0.578,0.162 -0.049,-0.123 -0.12,-0.223 -0.174,-0.34 0.281,-0.043 0.558,-0.089 0.889,-0.081 0.21,0.047 0.188,-0.139 0.2,-0.294 0.64,0.331 1.432,0.29 2.169,0.136"
             style="fill:#c8d67d;fill-opacity:1;fill-rule:nonzero;stroke:none"
             id="path3642"
             inkscape:connector-curvature="0" /></g><g
           id="g3644"
           transform="translate(172.166,454.8259)"><path
             d="M 0,0 C -0.352,1.564 -0.587,2.345 -1.095,3.127 -1.76,4.223 -2.581,4.574 -5.552,4.574 l -2.972,0 c -1.173,0 -1.29,-0.118 -1.29,-1.251 l 0,-9.305 4.027,0 c 3.558,0 3.754,0.352 4.223,2.893 l 1.134,0 0,-7.546 -1.134,0 c -0.469,2.698 -0.665,3.128 -4.223,3.128 l -4.027,0 0,-7.077 c 0,-3.362 0.313,-3.597 3.871,-3.832 l 0,-1.094 -10.635,0 0,1.094 c 3.128,0.235 3.441,0.47 3.441,3.832 l 0,15.6 c 0,3.363 -0.313,3.558 -3.323,3.793 l 0,1.094 17.203,0 C 0.781,4.496 0.977,2.033 1.134,0.156 L 0,0 z"
             style="fill:#c0322c;fill-opacity:1;fill-rule:nonzero;stroke:none"
             id="path3646"
             inkscape:connector-curvature="0" /></g><g
           id="g3648"
           transform="translate(203.0519,441.4538)"><path
             d="m 0,0 c -0.235,-1.212 -1.056,-4.926 -1.408,-6.138 l -17.712,0 0,1.094 c 3.285,0.235 3.598,0.509 3.598,3.832 l 0,15.639 c 0,3.324 -0.235,3.519 -3.441,3.754 l 0,1.095 10.205,0 0,-1.095 c -3.089,-0.235 -3.441,-0.391 -3.441,-3.754 l 0,-15.444 c 0,-2.111 0.195,-2.893 0.899,-3.284 0.782,-0.429 2.112,-0.508 3.754,-0.508 2.15,0 3.48,0.195 4.379,1.212 0.703,0.782 1.407,2.033 1.994,3.832 L 0,0 z"
             style="fill:#c0322c;fill-opacity:1;fill-rule:nonzero;stroke:none"
             id="path3650"
             inkscape:connector-curvature="0" /></g><g
           id="g3652"
           transform="translate(237.8091,459.6349)"><path
             d="m 0,0 c -2.345,-0.157 -3.245,-0.665 -3.402,-2.307 -0.117,-1.056 -0.234,-2.737 -0.234,-6.334 l 0,-3.206 c 0,-4.614 -0.704,-7.938 -2.933,-10.322 -1.837,-1.876 -4.456,-2.698 -7.037,-2.698 -2.307,0 -4.535,0.547 -6.255,1.877 -2.347,1.799 -3.442,4.692 -3.442,9.306 l 0,9.735 c 0,3.519 -0.351,3.675 -3.401,3.949 l 0,1.094 10.088,0 0,-1.094 c -3.051,-0.195 -3.363,-0.43 -3.363,-3.949 l 0,-8.876 c 0,-6.294 2.502,-9.93 7.35,-9.93 5.631,0 7.39,4.73 7.39,11.182 l 0,2.932 c 0,3.597 -0.117,5.239 -0.274,6.451 -0.195,1.525 -1.016,1.995 -3.792,2.19 l 0,1.094 L 0,1.094 0,0 z"
             style="fill:#c0322c;fill-opacity:1;fill-rule:nonzero;stroke:none"
             id="path3654"
             inkscape:connector-curvature="0" /></g><g
           id="g3656"
           transform="translate(247.8953,435.3154)"><path
             d="m 0,0 0,1.094 c 3.206,0.235 3.519,0.47 3.519,3.794 l 0,15.638 C 3.519,23.85 3.206,24.085 0,24.32 l 0,1.094 10.361,0 0,-1.094 C 7.155,24.085 6.842,23.85 6.842,20.526 l 0,-15.638 c 0,-3.363 0.313,-3.559 3.519,-3.794 L 10.361,0 0,0 z"
             style="fill:#c0322c;fill-opacity:1;fill-rule:nonzero;stroke:none"
             id="path3658"
             inkscape:connector-curvature="0" /></g><g
           id="g3660"
           transform="translate(282.4177,454.8259)"><path
             d="m 0,0 c -0.665,2.463 -1.721,5.161 -5.122,5.161 -3.011,0 -4.34,-2.151 -4.34,-4.262 0,-2.854 1.876,-4.223 4.965,-5.787 3.089,-1.603 6.764,-3.401 6.764,-7.819 0,-4.106 -3.479,-7.39 -8.679,-7.39 -1.603,0 -2.894,0.312 -3.832,0.587 -0.978,0.312 -1.564,0.625 -1.955,0.821 -0.274,0.82 -0.782,4.183 -1.056,6.059 l 1.173,0.275 c 0.587,-2.386 2.346,-6.334 6.413,-6.334 2.971,0 4.691,1.837 4.691,4.691 0,2.893 -2.15,4.262 -5.082,5.826 -2.503,1.369 -6.451,3.284 -6.451,7.702 0,3.754 3.01,6.96 8.054,6.96 1.798,0 3.44,-0.43 4.926,-0.899 C 0.625,4.223 0.821,2.658 1.134,0.195 L 0,0 z"
             style="fill:#c0322c;fill-opacity:1;fill-rule:nonzero;stroke:none"
             id="path3662"
             inkscape:connector-curvature="0" /></g><g
           id="g3664"
           transform="translate(315.494,454.6686)"><path
             d="m 0,0 c -0.391,1.878 -0.782,2.855 -1.212,3.48 -0.665,0.938 -1.29,1.252 -4.262,1.252 l -2.737,0 0,-19.276 c 0,-3.089 0.313,-3.48 3.988,-3.715 l 0,-1.094 -11.182,0 0,1.094 c 3.558,0.235 3.871,0.626 3.871,3.715 l 0,19.276 -2.424,0 c -3.246,0 -4.027,-0.352 -4.536,-1.213 C -18.963,2.855 -19.276,1.721 -19.745,0 l -1.133,0 c 0.195,2.346 0.391,4.888 0.469,7.038 l 0.782,0 c 0.547,-0.899 1.055,-0.977 2.15,-0.977 l 15.444,0 c 1.055,0 1.368,0.235 1.954,0.977 l 0.822,0 C 0.782,5.239 0.938,2.385 1.173,0.118 L 0,0 z"
             style="fill:#c0322c;fill-opacity:1;fill-rule:nonzero;stroke:none"
             id="path3666"
             inkscape:connector-curvature="0" /></g><g
           id="g3668"
           transform="translate(346.8097,441.4931)"><path
             d="m 0,0 c -0.234,-1.29 -1.016,-4.965 -1.369,-6.178 l -18.845,0 0,1.095 c 3.558,0.274 3.871,0.586 3.871,3.793 l 0,15.561 c 0,3.48 -0.313,3.636 -3.362,3.871 l 0,1.094 17.438,0 c 0,-0.977 0.195,-3.636 0.313,-5.63 L -3.089,13.45 c -0.352,1.642 -0.743,2.502 -1.251,3.323 -0.547,0.86 -1.603,1.134 -4.418,1.134 l -2.971,0 c -1.212,0 -1.291,-0.118 -1.291,-1.252 l 0,-8.913 3.675,0 c 3.558,0 3.754,0.312 4.223,2.931 l 1.134,0 0,-7.467 -1.134,0 C -5.63,5.982 -5.903,6.217 -9.305,6.217 l -3.715,0 0,-7.39 c 0,-1.837 0.235,-2.698 0.939,-3.168 0.743,-0.507 2.111,-0.507 4.066,-0.507 2.972,0 4.066,0.312 4.926,1.329 0.665,0.782 1.408,2.15 1.955,3.675 L 0,0 z"
             style="fill:#c0322c;fill-opacity:1;fill-rule:nonzero;stroke:none"
             id="path3670"
             inkscape:connector-curvature="0" /></g><g
           id="g3672"
           transform="translate(380.0023,435.0031)"><path
             d="m 0,0 c -0.469,0 -0.938,0 -1.368,0.038 -2.972,0.157 -4.575,1.017 -6.334,3.559 -1.368,1.915 -2.776,4.339 -3.949,6.255 -0.665,1.095 -1.33,1.564 -3.323,1.564 l -1.252,0 0,-6.216 c 0,-3.323 0.352,-3.558 3.441,-3.793 l 0,-1.095 -10.243,0 0,1.095 c 3.205,0.235 3.518,0.47 3.518,3.793 l 0,15.717 c 0,3.324 -0.313,3.441 -3.362,3.715 l 0,1.094 9.696,0 c 2.854,0 4.77,-0.351 6.217,-1.329 1.603,-1.017 2.619,-2.776 2.619,-5.123 0,-3.361 -2.111,-5.433 -4.965,-6.724 0.664,-1.251 2.307,-3.87 3.48,-5.63 C -4.418,4.887 -3.636,3.871 -2.658,2.854 -1.642,1.681 -0.703,1.25 0.157,1.016 L 0,0 z m -14.349,12.668 c 1.955,0 3.245,0.312 4.222,1.133 1.526,1.173 2.151,2.738 2.151,4.849 0,4.222 -2.776,5.786 -5.708,5.786 -1.134,0 -1.799,-0.157 -2.112,-0.391 -0.312,-0.195 -0.43,-0.626 -0.43,-1.72 l 0,-9.657 1.877,0 z"
             style="fill:#c0322c;fill-opacity:1;fill-rule:nonzero;stroke:none"
             id="path3674"
             inkscape:connector-curvature="0" /></g><g
           id="g3676"
           transform="translate(402.3263,449.0393)"><path
             d="m 0,0 c 3.988,-0.587 6.998,-2.346 6.998,-6.217 0,-2.619 -1.407,-4.653 -3.714,-5.903 -1.955,-1.134 -4.653,-1.604 -7.741,-1.604 l -8.876,0 0,1.134 c 3.324,0.235 3.558,0.508 3.558,3.754 l 0,15.678 c 0,3.245 -0.195,3.48 -3.245,3.714 l 0,1.134 10.283,0 c 2.932,0 4.692,-0.47 5.982,-1.329 C 4.614,9.423 5.434,7.741 5.434,5.903 5.434,2.228 2.307,0.664 0,0.077 L 0,0 z m -4.496,0.469 c 4.222,0 5.981,1.682 5.981,4.927 0,2.814 -1.602,5.004 -5.004,5.004 -0.977,0 -1.799,-0.195 -2.15,-0.43 C -6.021,9.735 -6.138,9.266 -6.138,8.093 l 0,-7.624 1.642,0 z m -1.642,-9.227 c 0,-2.815 0.742,-3.597 3.167,-3.558 3.01,0 5.786,1.642 5.786,5.708 0,3.95 -2.659,5.708 -7.351,5.708 l -1.602,0 0,-7.858 z"
             style="fill:#c0322c;fill-opacity:1;fill-rule:nonzero;stroke:none"
             id="path3678"
             inkscape:connector-curvature="0" /></g><g
           id="g3680"
           transform="translate(447.0527,448.3348)"><path
             d="m 0,0 c 0,-8.445 -5.943,-13.606 -13.137,-13.606 -7.233,0 -12.824,5.552 -12.824,13.059 0,6.999 4.926,13.528 13.293,13.528 C -5.982,12.981 0,7.82 0,0 m -21.582,0.47 c 0,-7.195 3.831,-12.629 9.266,-12.629 4.223,0 7.937,3.636 7.937,11.104 0,8.171 -4.066,12.589 -9.149,12.589 -4.223,0 -8.054,-3.792 -8.054,-11.064"
             style="fill:#c0322c;fill-opacity:1;fill-rule:nonzero;stroke:none"
             id="path3682"
             inkscape:connector-curvature="0" /></g><g
           id="g3684"
           transform="translate(471.5656,454.7473)"><path
             d="m 0,0 c -0.665,2.463 -1.798,5.2 -5.161,5.2 -2.854,0 -4.223,-2.072 -4.223,-4.222 0,-2.738 1.799,-4.067 4.927,-5.67 3.245,-1.642 6.803,-3.518 6.803,-7.82 0,-4.183 -3.558,-7.506 -8.837,-7.506 -1.563,0 -2.854,0.274 -3.831,0.586 -1.016,0.313 -1.603,0.626 -2.033,0.822 -0.313,0.859 -0.821,4.183 -1.056,6.177 l 1.173,0.313 c 0.665,-2.424 2.502,-6.451 6.491,-6.451 2.854,0 4.535,1.798 4.535,4.574 0,2.775 -2.072,4.183 -4.966,5.747 -2.815,1.486 -6.529,3.441 -6.529,7.742 0,3.871 3.089,7.077 8.211,7.077 1.916,0 3.675,-0.508 5.004,-0.899 C 0.665,4.262 0.899,2.698 1.212,0.195 L 0,0 z"
             style="fill:#c0322c;fill-opacity:1;fill-rule:nonzero;stroke:none"
             id="path3686"
             inkscape:connector-curvature="0" /></g><g
           id="g3688"
           transform="translate(233.684,511.6592)"><path
             d="m 0,0 c -0.04,0.625 0.169,1.009 0.088,1.676 -0.251,0.211 -0.758,0.161 -0.893,0.487 0.101,0.292 0.497,0.295 0.39,0.794 -0.791,0.729 -0.603,2.613 -0.526,3.842 -1.123,0.75 -2.018,-0.595 -2.557,-0.712 -0.137,0.624 0.52,0.468 0.385,1.09 -0.343,0.074 -0.379,-0.15 -0.689,-0.104 0.11,0.521 -0.173,0.56 -0.498,0.392 0.041,0.189 0.212,0.248 0.196,0.492 -1.224,0.183 -1.718,-0.838 -2.86,-0.415 0.094,0.285 0.323,0.785 0.092,1.088 -0.805,0.137 -0.601,-0.715 -1.278,-0.701 0.113,0.379 0.364,0.62 0.287,1.185 -0.844,0.194 -1.133,-1.453 -2.264,-0.711 -0.278,-1.908 -2.263,-2.143 -3.627,-2.984 -0.329,0.296 -0.694,0.555 -0.993,0.879 0.146,0.248 0.241,0.546 0.487,0.694 0.187,-0.108 0.467,-0.123 0.693,-0.192 0.29,0.237 0.02,1.025 0.385,1.189 0.618,-0.039 0.725,-0.592 1.385,-0.583 0.2,0.391 0.332,0.852 0.483,1.287 0.913,-0.114 0.726,0.853 1.474,0.898 0.615,1.356 1.511,2.325 0.954,4.347 -1.947,0.352 -0.571,0.777 -0.411,1.874 -0.61,-0.301 -1.057,-0.151 -1.48,0.185 -0.563,-0.523 -0.854,-1.311 -1.865,-1.395 -0.948,0.402 0.051,1.917 -0.609,2.362 0.813,0.574 1.028,1.547 0.966,2.77 -0.448,0.241 -1.01,0.367 -0.898,1.176 -0.42,0.146 -0.78,-0.269 -0.887,-0.105 0.231,1.101 -0.216,2.271 -0.123,3.258 -0.473,-0.123 -0.479,-0.704 -1.18,-0.604 -0.2,0.249 0.242,0.553 -0.007,0.89 -0.822,-0.074 -1.029,-0.749 -1.669,-1.001 -0.001,0.266 -0.003,0.527 -0.006,0.79 -1.244,-0.258 -0.884,-2.572 -2.351,-2.287 -0.048,0.536 0.17,0.81 0.088,1.381 -0.034,0.328 -0.302,-0.388 -0.394,-10e-4 -0.08,0.468 0.149,0.635 0.091,1.084 -1.286,0.253 -0.987,-1.052 -2.065,-1 -0.131,0.228 -0.047,0.678 -0.204,0.884 -0.595,0.066 -0.47,-0.581 -0.882,-0.697 -0.499,0.322 -0.514,1.137 -1.293,1.173 -0.116,-0.375 -0.183,-0.798 -0.386,-1.088 -0.216,1.297 0.048,2.862 0.664,3.656 0.203,-0.222 0.516,-0.338 0.989,-0.289 0.485,0.86 0.582,2.105 0.663,3.359 -0.32,0.171 -0.836,0.145 -0.892,0.588 0.25,0.667 0.787,1.051 0.973,1.783 -0.592,0.363 0.026,1.346 -0.311,1.97 -0.994,0.094 -0.906,-1.283 -1.768,-1.002 -0.053,0.542 0.098,1.293 -0.111,1.677 -0.581,0.073 -1.533,-0.232 -1.68,0.283 0.03,0.329 0.283,0.44 0.19,0.889 -0.478,0.178 -0.642,0.673 -1.189,0.782 -0.264,-0.819 -0.312,-1.851 -1.269,-1.985 -0.088,0.481 0.28,0.509 0.191,0.988 -0.462,-0.171 -0.775,0.405 -0.797,0.981 -0.494,-0.312 -1.329,-0.181 -1.972,-0.113 -0.12,-0.403 -0.25,-0.797 -0.386,-1.185 -0.214,0.078 -0.339,0.251 -0.69,0.19 -0.316,-0.802 -0.671,-1.56 -1.566,-1.789 -0.14,0.421 -0.125,1.002 -0.405,1.28 -0.452,-0.013 -0.633,-0.29 -1.183,-0.207 -0.127,0.957 0.399,1.743 0.279,2.37 -0.41,0.238 -0.827,-0.134 -1.086,0.19 -0.015,0.444 0.371,0.881 0.186,1.184 -0.368,0.266 -0.824,-0.054 -1.281,-0.011 0.23,0.395 0.381,0.865 0.483,1.388 -0.48,0.574 -1.008,1.097 -1.786,1.367 -0.293,-0.334 -0.353,-0.894 -0.783,-1.092 -0.147,0.114 -0.241,0.283 -0.495,0.292 -0.438,-0.514 -0.496,-1.404 -1.171,-1.686 -0.441,0.446 -0.946,0.827 -1.978,0.675 -0.149,0.312 -0.056,0.872 -0.205,1.184 -0.722,0.153 -0.766,-0.358 -1.381,-0.307 0.012,0.509 -0.132,0.859 -0.303,1.18 -0.593,-0.037 -0.772,-0.479 -1.478,-0.408 -0.137,0.196 -0.099,0.565 -0.203,0.789 -0.476,-0.252 -0.838,0.121 -1.381,0.088 -0.519,-0.206 -0.046,-1.391 -0.482,-1.679 -0.6,-0.021 -1.07,0.534 -1.678,0.185 -0.181,-0.981 1.108,-0.998 0.608,-1.969 -0.45,-0.125 -0.39,0.268 -0.792,0.189 -0.255,-0.89 -1.441,-0.865 -1.763,-1.688 0.72,-0.598 1.91,-0.712 1.988,-1.959 -0.246,-0.566 -1.244,-0.948 -1.772,-0.408 -0.201,-0.454 -0.631,-0.685 -1.079,-0.896 -0.096,0.199 -0.379,0.209 -0.692,0.192 -0.699,-0.26 -0.756,-1.147 -1.469,-1.39 -0.065,0.617 0.278,0.834 0.285,1.381 -0.505,-0.016 -0.819,0.161 -0.99,0.486 -0.033,0.357 0.012,0.641 0.093,0.887 -0.916,0.087 -0.971,-0.678 -1.771,-0.702 0.03,0.658 -0.122,1.136 -0.405,1.476 -1.034,0.437 -1.057,-0.724 -1.87,-0.803 -0.356,0.134 -0.25,0.741 -0.598,0.882 -0.819,0.121 -0.558,-0.824 -1.177,-0.896 -0.001,0.366 -0.05,0.678 -0.4,0.687 -0.376,-0.868 -1.577,-0.927 -2.059,-1.693 0.272,-0.222 0.286,-0.974 -0.091,-1.088 -0.755,-0.003 -1.512,-0.009 -2.268,-0.016 0.134,-1.337 -1.088,-1.344 -0.967,-2.671 0.52,-0.575 1.182,-0.894 1.1,-1.667 -0.058,-0.523 -0.995,-0.816 -0.679,-1.587 0.646,-0.417 1.222,-1.279 0.906,-2.358 0.773,-0.541 1.892,-0.731 2.477,-1.461 -0.586,-0.403 -0.023,-1.155 0.307,-1.478 0.788,0.311 2.115,-0.337 2.662,0.316 0.213,-0.776 1.476,-0.49 1.981,-0.971 -0.046,-0.48 0.149,-1.193 -0.187,-1.384 -0.662,0.318 -1.776,0.19 -2.466,-0.018 -0.149,-0.994 -1.011,-1.288 -1.465,-1.985 -0.492,0.264 -1.261,0.243 -1.485,0.778 0.1,0.28 0.099,0.412 -0.005,0.69 -0.33,0.431 -1.05,0.461 -0.899,1.376 -0.859,0.241 -1.878,0.385 -2.664,-0.021 -0.011,0.155 0.01,0.342 -0.2,0.294 -0.872,-0.021 -1.487,0.212 -2.272,0.279 -0.797,2.2 -3.784,1.452 -6.129,1.726 -0.723,-0.457 -0.132,-1.203 0.21,-1.672 -0.927,-0.037 -1.004,-0.907 -1.47,-1.392 -0.366,0.122 -0.37,0.616 -0.892,0.582 -0.108,-0.381 -0.179,-0.8 -0.485,-0.99 -0.171,0.193 -0.512,0.211 -0.889,0.19 -0.42,-0.333 -0.233,-1.27 -0.877,-1.386 -0.438,0.119 -0.718,0.398 -1.385,0.283 -0.115,-0.275 -0.102,-0.679 -0.09,-1.083 -0.262,-0.003 -0.526,-0.005 -0.789,-0.007 -0.374,-0.835 0.651,-1.393 0.41,-2.069 -0.475,0.046 -0.61,0.44 -1.187,0.387 -0.232,-1.009 -1.203,-1.296 -1.163,-2.573 0.348,-0.324 1.115,0.162 1.282,0.008 -0.193,-1.555 1.196,-1.505 1.499,-2.553 -0.245,-0.214 -0.654,-0.269 -0.883,-0.501 -0.162,-0.661 0.396,-1.428 -0.085,-1.779 -0.37,0.126 -0.505,0.484 -1.088,0.389 0.271,-0.85 0.127,-2.127 0.319,-3.057 0.683,-0.084 0.994,0.197 1.577,0.211 0.456,-0.564 0.268,-1.781 0.318,-2.761 0.554,-0.3 0.827,-0.884 1.487,-1.073 0.426,0.412 1.022,0.469 1.675,0.209 0.464,0.752 0.973,1.458 1.961,1.693 0.023,-0.078 0.083,-0.115 0.198,-0.099 0.173,-0.332 0.075,-0.722 0.008,-1.085 1.09,-0.351 0.833,-2.07 2.48,-1.855 0.284,0.08 0.057,0.662 0.489,0.597 -0.024,-0.457 0.212,-0.649 0.501,-0.784 0.667,0.318 0.835,1.132 2.064,0.901 0.511,0.639 0.138,2.149 0.769,2.67 0.35,-0.273 0.661,-0.586 0.993,-0.879 -0.273,-0.384 -0.525,-0.787 -0.482,-1.487 0.62,-0.496 1.959,-0.261 2.668,-0.669 0.369,0.909 1.223,1.344 2.159,1.697 0.123,-0.409 0.715,-0.335 0.795,-0.786 -0.459,-0.591 -0.61,-1.488 -0.871,-2.272 -0.214,0.079 -0.338,0.248 -0.691,0.19 -0.511,-0.476 -0.32,-1.645 -0.871,-2.079 -1.338,0.496 -2.44,1.234 -3.47,2.044 -0.652,-0.175 -0.864,-0.782 -1.87,-0.605 -0.351,-0.862 0.507,-2.102 -0.277,-2.571 -1.568,0.079 -2.757,-0.216 -3.545,-0.913 -0.156,0.24 -0.422,0.367 -0.792,0.391 -0.64,-0.253 -1.077,-0.703 -1.47,-1.196 -0.055,-0.585 0.076,-0.984 0.208,-1.382 -0.13,-0.163 -0.558,-0.036 -0.689,-0.201 0.102,-0.853 0.669,-1.738 0.216,-2.563 0.714,-0.107 0.613,-1.037 0.607,-1.869 0.308,-0.017 0.725,0.072 0.889,-0.093 0.07,-0.359 0.144,-0.717 0.108,-1.183 0.822,0.007 0.681,0.963 1.373,1.095 0.003,-0.425 0.006,-0.855 0.01,-1.281 0.687,0.04 0.944,0.503 1.573,0.602 0.339,-0.317 0.725,-0.59 1.19,-0.778 -0.711,-0.69 -0.223,-1.924 0.511,-2.268 0.8,-0.002 0.748,0.832 1.473,0.902 -0.122,-0.816 -0.959,-1.786 -0.374,-2.667 0.749,-0.085 0.726,0.592 1.277,0.7 -0.001,-0.664 0.413,-0.905 0.798,-1.179 0.679,0.117 0.884,0.699 1.573,0.802 0.078,-0.448 0.037,-1.023 0.502,-1.077 0.546,0.445 1.618,1.657 2.167,0.406 0.6,1.117 1.559,1.487 2.95,1.21 -0.619,-0.699 -1.211,-1.418 -1.162,-2.773 0.545,-0.471 1.242,-0.793 1.59,-1.469 0.908,0.308 1.589,-0.354 2.272,-0.375 0.145,0.214 0.105,0.614 0.388,0.694 0.195,-0.204 0.312,-0.479 0.695,-0.488 0.982,0.954 2.307,-0.386 3.351,0.319 0.203,0.457 0.146,1.164 0.98,0.995 0.027,-0.341 0.158,-0.98 0.503,-1.277 0.817,0.239 1.434,0.675 2.063,1.101 0.213,0.507 0.044,1.393 0.58,1.585 0.286,-0.145 0.159,-0.701 0.597,-0.688 2.84,0.43 1.753,3.331 0.361,4.145 1.335,-0.393 1.744,0.954 2.756,1.206 0.146,-0.215 0.302,-0.424 0.301,-0.788 0.706,0.185 0.791,0.986 1.073,1.588 0.343,-0.077 0.378,0.149 0.69,0.103 1.569,-1.714 0.25,-4.538 0.053,-7.004 -0.275,-3.466 0.908,-11.214 1.087,-13.999 0.054,-0.833 -0.096,-1.484 -0.31,-2.082 2.075,0.19 4.151,0.382 6.229,0.544 -1.131,3.764 0.22,13.983 -0.311,17.464 -0.067,0.434 -0.427,0.858 -0.404,1.279 0.049,0.964 1.506,3.013 2.243,3.272 0.645,-0.207 0.239,-1.478 0.998,-1.571 0.441,0.287 0.326,1.117 1.077,1.095 0.343,-0.081 0.184,-0.677 0.499,-0.788 0.834,0.554 1.132,1.63 1.958,2.186 0.231,-0.36 0.159,-1.03 0.697,-1.08 0.764,0.132 0.485,1.287 1.472,1.197 0.099,-1.308 -0.137,-2.279 -0.966,-2.671 -0.056,0.274 0.004,0.668 -0.399,0.59 -0.272,-0.975 -1.054,-1.444 -1.064,-2.673 0.478,-0.08 0.503,0.286 0.983,0.205 0.549,-0.34 0.636,-1.144 0.608,-2.068 0.694,-0.127 0.791,0.332 1.281,0.405 0.5,-0.121 0.452,-0.798 0.798,-1.078 0.809,-0.113 0.544,0.829 1.275,0.798 0.162,-1.163 1.65,-0.973 1.401,-2.557 0.81,-0.044 0.843,0.675 1.672,0.608 0.106,-0.986 0.629,-1.548 1.494,-1.768 0.161,0.929 -0.526,0.994 -0.606,1.676 0.442,1.305 1.59,0.48 2.564,0.215 -0.141,1.022 0.494,1.275 1.074,1.589 0.353,-0.206 0.766,-0.348 1.383,-0.285 0.439,0.48 0.618,1.216 1.371,1.392 -0.052,0.965 0.697,1.141 0.971,1.784 0.073,-0.425 0.283,-0.709 0.698,-0.786 0.36,0.167 0.26,0.787 0.684,0.892 0.464,-0.388 0.565,-1.145 0.9,-1.67 1.035,0.226 0.705,1.4 1.567,1.492 0.878,0.094 0.954,-1.133 2.177,-0.97 0.166,2.09 1.396,3.131 2.036,4.754 -0.533,0.614 -1.809,0.14 -2.367,-0.118 -0.174,0.318 -0.378,0.612 -0.304,1.181 -0.624,0.059 -0.842,-0.281 -1.28,-0.405 -0.505,0.617 -0.376,2.13 0.277,2.47 0.351,-0.174 0.606,-0.447 0.697,-0.882 1.138,0.084 1.94,0.503 2.656,1.004 0.529,-0.19 0.862,-0.581 1.681,-0.479 0.334,0.978 0.884,1.742 1.858,2.085 0.522,-0.063 0.613,-0.57 1.287,-0.482 0.615,1.516 0.962,3.295 2.634,3.772 C 0.113,-1.438 0.853,-0.794 0,0"
             style="fill:#95b31b;fill-opacity:1;fill-rule:nonzero;stroke:none"
             id="path3690"
             inkscape:connector-curvature="0" /></g><g
           id="g3692"><g
             id="g3694" /><g
             id="g3700"><g
               clip-path="url(#clipPath3696)"
               id="g3702"><g
                 transform="translate(380.1558,471.6768)"
                 id="g3704"><path
                   d="m 0,0 c -19.361,2.771 -38.812,4.662 -58.301,6.038 l -1.148,56.29 -3.858,-0.079 -10.794,25.542 1.126,0.023 -0.015,0.736 -2.062,-0.043 c -0.122,1.836 -0.518,3.365 -1.033,4.089 0.092,0.136 0.144,0.299 0.14,0.472 -0.008,0.454 -0.382,0.812 -0.832,0.803 -0.452,-0.011 -0.81,-0.384 -0.801,-0.835 0.002,-0.176 0.064,-0.336 0.159,-0.467 -0.482,-0.744 -0.818,-2.286 -0.865,-4.128 l -2.061,-0.041 0.015,-0.737 0.972,0.02 -8.939,-25.944 -7.176,-0.146 0,0.044 -8.94,-0.183 -0.504,1.494 c 0.164,0.192 0.263,0.438 0.258,0.709 -0.007,0.293 -0.13,0.557 -0.327,0.744 -0.196,0.189 -0.465,0.306 -0.758,0.299 0,0 -4.271,0.893 -9.503,0.787 -5.232,-0.108 -9.464,-1.176 -9.464,-1.176 -0.292,-0.004 -0.556,-0.131 -0.744,-0.327 -0.01,-0.01 -0.014,-0.025 -0.023,-0.036 -0.006,-0.005 -0.016,-0.004 -0.022,-0.009 -0.187,-0.195 -0.301,-0.463 -0.295,-0.755 0.005,-0.298 0.131,-0.557 0.325,-0.745 0.033,-0.034 0.071,-0.062 0.111,-0.088 -0.202,-0.459 -0.443,-0.963 -0.667,-1.337 l -6.711,-0.138 0.001,-0.044 -0.045,-10e-4 1.067,-52.322 c -6.213,-0.033 -12.427,-0.096 -18.64,-0.265 -10.053,-0.352 -20.11,-0.716 -30.147,-1.519 -10.04,-0.716 -20.063,-1.752 -30.044,-3.113 -4.984,-0.734 -9.965,-1.494 -14.911,-2.461 -4.94,-0.974 -9.883,-2.014 -14.683,-3.541 2.483,0.39 4.971,0.683 7.466,0.925 2.491,0.262 4.984,0.486 7.48,0.675 4.992,0.379 9.981,0.724 14.979,0.946 9.985,0.542 19.982,0.81 29.975,1.05 9.997,0.145 19.991,0.362 29.991,0.327 9.999,0.042 20,0.054 30.003,-0.094 C -100.24,1.258 -80.224,0.967 -60.192,0.621 -40.157,0.28 -20.11,-0.103 0,0 m -103.889,17.871 17.367,0.353 0.217,-10.612 c -5.794,0.254 -11.589,0.497 -17.388,0.647 l -0.196,9.612 z m 0.567,14.943 c 0.916,1.042 2.49,1.888 4.432,2.365 l 0.298,-14.603 -5.351,-0.11 -0.208,10.259 c -0.015,0.743 0.284,1.452 0.829,2.089 m -25.325,-17.291 4.826,0.098 0.145,-7.089 c -1.609,0 -3.219,-0.009 -4.828,-0.013 l -0.143,7.004 z m 4.147,33.417 -4.826,-0.096 -0.108,5.267 c -0.013,0.663 0.243,1.266 0.663,1.714 0.43,0.435 1.019,0.715 1.681,0.729 1.344,0.026 2.456,-1.043 2.485,-2.389 l 0.105,-5.225 z m 0.334,-16.359 0.105,-5.228 -4.825,-0.096 -0.106,5.271 c -0.014,0.662 0.242,1.265 0.662,1.713 0.43,0.434 1.018,0.714 1.679,0.729 1.344,0.026 2.457,-1.044 2.485,-2.389 m 12.359,10.362 -9.438,-0.191 -0.21,10.257 c -0.026,1.301 0.476,2.488 1.307,3.362 0.838,0.859 1.999,1.405 3.295,1.432 2.619,0.053 4.784,-2.026 4.837,-4.644 l 0.209,-10.216 z m 0.461,-22.626 -9.438,-0.193 -0.208,10.259 c -0.027,1.301 0.475,2.489 1.306,3.363 0.838,0.859 1.999,1.405 3.294,1.432 2.619,0.053 4.784,-2.028 4.839,-4.645 l 0.207,-10.216 z m 20.264,27.134 -4.391,-0.089 0,0.044 -5.049,-0.103 -0.126,6.129 c -0.026,1.3 0.475,2.489 1.305,3.363 0.838,0.86 1.999,1.406 3.295,1.431 2.619,0.055 4.786,-2.026 4.84,-4.644 l 0.126,-6.131 z m -1.806,-12.029 0.303,-14.768 -2.888,-0.059 0,0.044 -2.458,-0.05 -0.3,14.729 c 0.833,0.164 1.721,0.266 2.644,0.283 0.94,0.018 1.847,-0.043 2.699,-0.179 m 6.314,-14.643 -5.395,-0.112 -0.3,14.646 c 3.181,-0.643 5.446,-2.296 5.485,-4.276 l 0.21,-10.258 z m 15.692,22.956 -9.482,-0.194 -0.211,10.258 c -0.052,2.62 2.026,4.784 4.644,4.839 2.619,0.053 4.787,-2.027 4.839,-4.648 l 0.21,-10.255 z m 0.366,-17.947 -9.484,-0.192 -0.113,5.578 c -0.053,2.617 2.024,4.785 4.644,4.838 2.619,0.053 4.787,-2.027 4.84,-4.644 l 0.113,-5.58 z m 4.388,-17.698 -17.536,-0.358 -0.214,10.545 17.535,0.357 0.215,-10.544 z m 3.508,56.528 1.747,0.05 -4.681,22.537 -6.612,0 9.546,-22.587 z m -26.117,-0.45 7.958,23.097 -44.796,-0.06 -4.737,-23.954 3.143,0.135 c 0.23,0.377 -0.336,0.365 -0.126,0.841 -0.04,0.025 0.764,0.232 0.731,0.267 -0.195,0.187 -0.321,0.446 -0.325,0.745 -0.007,0.291 0.108,0.56 0.295,0.754 0.188,0.196 0.452,0.324 0.744,0.329 0,0 5.327,1.381 10.559,1.49 5.232,0.105 10.682,-0.764 10.682,-0.764 0.293,0.006 0.562,-0.111 0.758,-0.299 0.197,-0.187 0.32,-0.451 0.326,-0.744 0.006,-0.271 -0.093,-0.516 -0.257,-0.708 l 0.504,-1.496 14.541,0.367 z"
                   style="fill:#c0322c;fill-opacity:1;fill-rule:nonzero;stroke:none"
                   id="path3706"
                   inkscape:connector-curvature="0" /></g></g></g></g></g></g></g></svg>