<?xml version="1.0" encoding="UTF-8" standalone="no"?>
<!-- Created with Inkscape (http://www.inkscape.org/) -->

<svg
   xmlns:dc="http://purl.org/dc/elements/1.1/"
   xmlns:cc="http://creativecommons.org/ns#"
   xmlns:rdf="http://www.w3.org/1999/02/22-rdf-syntax-ns#"
   xmlns:svg="http://www.w3.org/2000/svg"
   xmlns="http://www.w3.org/2000/svg"
   xmlns:sodipodi="http://sodipodi.sourceforge.net/DTD/sodipodi-0.dtd"
   xmlns:inkscape="http://www.inkscape.org/namespaces/inkscape"
   id="svg3570"
   version="1.1"
   inkscape:version="0.48.4 r9939"
   width="140"
   height="140"
   xml:space="preserve"
   sodipodi:docname="fb-gevel.svg"
   inkscape:export-filename="/home/mpo/projects/fluisterbos.github.io.git/img/fluisterbos-home.png"
   inkscape:export-xdpi="41"
   inkscape:export-ydpi="41"><metadata
     id="metadata3576"><rdf:RDF><cc:Work
         rdf:about=""><dc:format>image/svg+xml</dc:format><dc:type
           rdf:resource="http://purl.org/dc/dcmitype/StillImage" /><dc:title></dc:title></cc:Work></rdf:RDF></metadata><defs
     id="defs3574"><clipPath
       clipPathUnits="userSpaceOnUse"
       id="clipPath3584"><path
         d="m 0,0 595.276,0 0,841.89 L 0,841.89 0,0 z"
         id="path3586"
         inkscape:connector-curvature="0" /></clipPath><clipPath
       clipPathUnits="userSpaceOnUse"
       id="clipPath3592"><path
         d="m 301.348,423.846 173.564,0 0,-15.36 -173.564,0 0,15.36 z"
         id="path3594"
         inkscape:connector-curvature="0" /></clipPath><clipPath
       clipPathUnits="userSpaceOnUse"
       id="clipPath3696"><path
         d="m 139.016,566.548 242.14,0 0,-98.261 -242.14,0 0,98.261 z"
         id="path3698"
         inkscape:connector-curvature="0" /></clipPath></defs><sodipodi:namedview
     pagecolor="#000000"
     bordercolor="#666666"
     borderopacity="1"
     objecttolerance="10"
     gridtolerance="10"
     guidetolerance="10"
     inkscape:pageopacity="0.4"
     inkscape:pageshadow="2"
     inkscape:window-width="1014"
     inkscape:window-height="823"
     id="namedview3572"
     showgrid="false"
     fit-margin-top="10"
     fit-margin-left="10"
     fit-margin-right="10"
     fit-margin-bottom="10"
     inkscape:zoom="4.7805919"
     inkscape:cx="56.546875"
     inkscape:cy="68.296982"
     inkscape:window-x="509"
     inkscape:window-y="27"
     inkscape:window-maximized="0"
     inkscape:current-layer="g3578" /><g
     id="g3578"
     inkscape:groupmode="layer"
     inkscape:label="logo-Fluisterbos-v2"
     transform="matrix(1.25,0,0,-1.25,-299.29818,720.34121)"><g
       id="g3692"
       transform="translate(10.762498,1.3623955)"><g
         id="g3694" /><g
         id="g3700"><g
           clip-path="url(#clipPath3696)"
           id="g3702"><g
             transform="translate(380.1558,471.6768)"
             id="g3704"><path
               style="fill:#ffffff;fill-opacity:1;fill-rule:nonzero;stroke:none"
               d="m 237.53125,10 c -0.565,0.01375 -1.01125,0.4675 -1,1.03125 0.002,0.22 0.0687,0.43 0.1875,0.59375 -0.6025,0.93 -1.035,2.85375 -1.09375,5.15625 l -2.5625,0.0625 0,0.90625 1.21875,0 -11.15625,32.40625 -8.96875,0.1875 0,-0.0625 -11.1875,0.25 -0.625,-1.875 c 0.205,-0.24 0.31875,-0.53625 0.3125,-0.875 -0.009,-0.36625 -0.16,-0.70375 -0.40625,-0.9375 -0.245,-0.23625 -0.57125,-0.38375 -0.9375,-0.375 0,0 -5.335,-1.1325 -11.875,-1 -6.54,0.135 -11.84375,1.46875 -11.84375,1.46875 -0.365,0.005 -0.7025,0.16125 -0.9375,0.40625 -0.0125,0.0125 0.0112,0.04875 0,0.0625 -0.007,0.0063 -0.0238,-0.0063 -0.0313,0 -0.23375,0.24375 -0.3825,0.5725 -0.375,0.9375 0.006,0.3725 0.16375,0.7025 0.40625,0.9375 0.0412,0.0425 0.075,0.0925 0.125,0.125 -0.2525,0.57375 -0.5325,1.18875 -0.8125,1.65625 l -8.375,0.1875 1.625,74.1875 c 4.65628,0.0177 9.31112,0.0248 13.96875,0.0937 25.00625,0.22625 50.0225,0.59875 75.0625,1.03125 0.81252,0.0138 1.62495,0.0173 2.4375,0.0313 L 259,49.4375 l -4.65625,0.09375 -13.46875,-31.9375 1.40625,-0.03125 -0.0313,-0.90625 -2.5625,0.0625 c -0.1525,-2.295 -0.66875,-4.22 -1.3125,-5.125 0.115,-0.17 0.1925,-0.3775 0.1875,-0.59375 -0.01,-0.5675 -0.46875,-1.01125 -1.03125,-1 z m -5,8.25 -56,0.09375 -5.9375,29.9375 3.9375,-0.1875 c 0.2875,-0.47125 -0.41875,-0.43625 -0.15625,-1.03125 -0.05,-0.03125 0.9475,-0.3 0.90625,-0.34375 C 175.0375,46.485 174.88,46.155 174.875,45.78125 c -0.009,-0.36375 0.14125,-0.695 0.375,-0.9375 0.235,-0.245 0.5725,-0.4 0.9375,-0.40625 0,0 6.6475,-1.73875 13.1875,-1.875 6.54,-0.13125 13.34375,0.96875 13.34375,0.96875 0.36625,-0.0075 0.72375,0.14 0.96875,0.375 0.24625,0.23375 0.39875,0.57125 0.40625,0.9375 0.007,0.33875 -0.13875,0.635 -0.34375,0.875 l 0.65625,1.875 18.15625,-0.46875 z m 10.75,0.09375 11.9375,28.21875 2.1875,-0.0625 -5.84375,-28.15625 z m -4.71875,35.6875 c 3.27375,-0.06625 5.9975,2.53625 6.0625,5.8125 l 0.25,12.8125 -11.84375,0.25 -0.25,-12.8125 c -0.065,-3.275 2.50875,-5.99375 5.78125,-6.0625 z m -25.125,0.53125 c 3.27375,-0.06875 5.96375,2.54 6.03125,5.8125 l 0.15625,7.65625 -5.46875,0.09375 0,-0.03125 -6.3125,0.125 -0.15625,-7.65625 c -0.0325,-1.625 0.5875,-3.12625 1.625,-4.21875 1.0475,-1.075 2.505,-1.75 4.125,-1.78125 z m -26,0.53125 c 3.27375,-0.06625 5.965,2.50875 6.03125,5.78125 l 0.25,12.78125 -11.78125,0.25 -0.28125,-12.84375 c -0.0325,-1.62625 0.6175,-3.095 1.65625,-4.1875 1.0475,-1.07375 2.505,-1.7475 4.125,-1.78125 z m -12.8125,1.5625 c 1.68,-0.0325 3.0575,1.28625 3.09375,2.96875 l 0.15625,6.53125 -6.03125,0.125 -0.15625,-6.59375 c -0.0163,-0.82875 0.31875,-1.565 0.84375,-2.125 0.5375,-0.54375 1.26625,-0.88875 2.09375,-0.90625 z m 64.53125,25.65625 c 3.27375,-0.06625 5.99625,2.54125 6.0625,5.8125 l 0.125,6.96875 -11.84375,0.25 -0.15625,-6.96875 c -0.0662,-3.27125 2.5375,-5.99625 5.8125,-6.0625 z M 214,82.84375 c 1.175,-0.0225 2.31,0.04875 3.375,0.21875 l 0.375,18.46875 -3.59375,0.0625 0,-0.0625 -3.09375,0.0625 -0.375,-18.40625 c 1.04125,-0.205 2.15875,-0.3225 3.3125,-0.34375 z m 4.15625,0.34375 c 3.97625,0.80375 6.795,2.86875 6.84375,5.34375 l 0.28125,12.84375 -6.75,0.125 z M 188,83.375 c 3.27375,-0.06625 5.99375,2.54125 6.0625,5.8125 l 0.25,12.75 -11.8125,0.25 -0.25,-12.8125 c -0.0337,-1.62625 0.58625,-3.12625 1.625,-4.21875 1.0475,-1.07375 2.50625,-1.7475 4.125,-1.78125 z m 21.875,0 0.375,18.25 -6.6875,0.125 -0.25,-12.8125 c -0.0188,-0.92875 0.35,-1.82875 1.03125,-2.625 1.145,-1.3025 3.10375,-2.34125 5.53125,-2.9375 z m -34.6875,0.25 c 1.68,-0.0325 3.05875,1.31875 3.09375,3 l 0.125,6.53125 -6.03125,0.125 -0.125,-6.59375 c -0.0175,-0.8275 0.2875,-1.59625 0.8125,-2.15625 0.5375,-0.5425 1.29875,-0.8875 2.125,-0.90625 z m 75.375,20.40625 0.28125,13.1875 -21.9375,0.46875 -0.25,-13.1875 z m -25.21875,0.53125 0.25,13.25 c -7.2425,-0.3175 -14.47,-0.625 -21.71875,-0.8125 l -0.25,-12 z m -46.625,3.25 0.1875,8.875 c -2.01125,0 -4.02,-0.005 -6.03125,0 l -0.1875,-8.75 z"
               transform="matrix(0.8,0,0,-0.8,-266.79222,101.87117)"
               id="path3706"
               inkscape:connector-curvature="0"
               sodipodi:nodetypes="cccccccccccccccccccccccccccccccccccccccccccccccccccccccccccccccccccccccccccccccccccccccccsccccscccccccccccccccccccccccccccccccccccccccccccccccc" /></g></g></g></g></g></svg>