<?xml version="1.0" encoding="UTF-8" standalone="no"?>
<!-- Created with Inkscape (http://www.inkscape.org/) -->

<svg
   xmlns:dc="http://purl.org/dc/elements/1.1/"
   xmlns:cc="http://creativecommons.org/ns#"
   xmlns:rdf="http://www.w3.org/1999/02/22-rdf-syntax-ns#"
   xmlns:svg="http://www.w3.org/2000/svg"
   xmlns="http://www.w3.org/2000/svg"
   xmlns:sodipodi="http://sodipodi.sourceforge.net/DTD/sodipodi-0.dtd"
   xmlns:inkscape="http://www.inkscape.org/namespaces/inkscape"
   id="svg3570"
   version="1.1"
   inkscape:version="0.48.4 r9939"
   width="140"
   height="140"
   xml:space="preserve"
   sodipodi:docname="fb-gevel-inv.svg"><metadata
     id="metadata3576"><rdf:RDF><cc:Work
         rdf:about=""><dc:format>image/svg+xml</dc:format><dc:type
           rdf:resource="http://purl.org/dc/dcmitype/StillImage" /><dc:title /></cc:Work></rdf:RDF></metadata><defs
     id="defs3574"><clipPath
       clipPathUnits="userSpaceOnUse"
       id="clipPath3584"><path
         d="m 0,0 595.276,0 0,841.89 L 0,841.89 0,0 z"
         id="path3586"
         inkscape:connector-curvature="0" /></clipPath><clipPath
       clipPathUnits="userSpaceOnUse"
       id="clipPath3592"><path
         d="m 301.348,423.846 173.564,0 0,-15.36 -173.564,0 0,15.36 z"
         id="path3594"
         inkscape:connector-curvature="0" /></clipPath><clipPath
       clipPathUnits="userSpaceOnUse"
       id="clipPath3696"><path
         d="m 139.016,566.548 242.14,0 0,-98.261 -242.14,0 0,98.261 z"
         id="path3698"
         inkscape:connector-curvature="0" /></clipPath></defs><sodipodi:namedview
     pagecolor="#000000"
     bordercolor="#666666"
     borderopacity="1"
     objecttolerance="10"
     gridtolerance="10"
     guidetolerance="10"
     inkscape:pageopacity="1"
     inkscape:pageshadow="2"
     inkscape:window-width="1014"
     inkscape:window-height="823"
     id="namedview3572"
     showgrid="false"
     fit-margin-top="10"
     fit-margin-left="10"
     fit-margin-right="10"
     fit-margin-bottom="10"
     inkscape:zoom="4.7805919"
     inkscape:cx="15.233999"
     inkscape:cy="76.664147"
     inkscape:window-x="159"
     inkscape:window-y="41"
     inkscape:window-maximized="0"
     inkscape:current-layer="g3578" /><g
     id="g3578"
     inkscape:groupmode="layer"
     inkscape:label="logo-Fluisterbos-v2"
     transform="matrix(1.25,0,0,-1.25,-299.29818,720.34121)"><path
       style="fill:#ffffff;fill-opacity:1;stroke:none;"
       d="M 0 0 L 0 140 L 140 140 L 140 0 L 0 0 z M 93.375 11.71875 L 93.40625 11.71875 C 93.954238 11.724371 94.396438 12.161911 94.40625 12.71875 C 94.41125 12.935 94.33375 13.1425 94.21875 13.3125 C 94.8625 14.2175 95.37875 16.1425 95.53125 18.4375 L 98.09375 18.375 L 98.15625 19.28125 L 96.75 19.3125 L 110.21875 51.25 L 114.875 51.15625 L 116.53125 128.3125 C 115.7187 128.2985 114.90627 128.29505 114.09375 128.28125 C 89.05375 127.84875 64.0375 127.47625 39.03125 127.25 C 34.37362 127.1811 29.71878 127.17395 25.0625 127.15625 L 23.4375 52.96875 L 31.8125 52.78125 C 32.0925 52.31375 32.3725 51.69875 32.625 51.125 C 32.575 51.0925 32.5412 51.0425 32.5 51 C 32.2575 50.765 32.09975 50.435 32.09375 50.0625 C 32.08625 49.6975 32.235 49.36875 32.46875 49.125 C 32.47625 49.1187 32.52425 49.1313 32.53125 49.125 C 32.54245 49.11125 32.51875 49.075 32.53125 49.0625 C 32.76625 48.8175 33.10375 48.66125 33.46875 48.65625 C 33.46875 48.65625 38.7725 47.3225 45.3125 47.1875 C 51.8525 47.055 57.1875 48.1875 57.1875 48.1875 C 57.55375 48.17875 57.88 48.32625 58.125 48.5625 C 58.37125 48.79625 58.52225 49.13375 58.53125 49.5 C 58.5375 49.83875 58.42375 50.135 58.21875 50.375 L 58.84375 52.25 L 70.03125 52 L 70.03125 52.0625 L 79 51.875 L 90.15625 19.46875 L 88.9375 19.46875 L 88.9375 18.5625 L 91.5 18.5 C 91.55875 16.1975 91.99125 14.27375 92.59375 13.34375 C 92.47495 13.18 92.40825 12.97 92.40625 12.75 C 92.395211 12.196841 92.825109 11.748349 93.375 11.71875 z M 88.40625 19.96875 L 78.4375 48.84375 L 60.28125 49.3125 L 59.625 47.4375 C 59.83 47.1975 59.97575 46.90125 59.96875 46.5625 C 59.96125 46.19625 59.80875 45.85875 59.5625 45.625 C 59.3175 45.39 58.96 45.2425 58.59375 45.25 C 58.59375 45.25 51.79 44.15 45.25 44.28125 C 38.71 44.4175 32.0625 46.15625 32.0625 46.15625 C 31.6975 46.1625 31.36 46.3175 31.125 46.5625 C 30.89125 46.805 30.741 47.13625 30.75 47.5 C 30.755 47.87375 30.9125 48.20375 31.15625 48.4375 C 31.1975 48.48125 30.2 48.75 30.25 48.78125 C 29.9875 49.37625 30.69375 49.34125 30.40625 49.8125 L 26.46875 50 L 32.40625 20.0625 L 88.40625 19.96875 z M 99.15625 20.0625 L 107.4375 20.0625 L 113.28125 48.21875 L 111.09375 48.28125 L 99.15625 20.0625 z M 94.4375 55.75 C 91.165 55.81875 88.59125 58.5375 88.65625 61.8125 L 88.90625 74.625 L 100.75 74.375 L 100.5 61.5625 C 100.435 58.28625 97.71125 55.68375 94.4375 55.75 z M 69.3125 56.28125 C 67.6925 56.3125 66.235 56.9875 65.1875 58.0625 C 64.15 59.155 63.53 60.65625 63.5625 62.28125 L 63.71875 69.9375 L 70.03125 69.8125 L 70.03125 69.84375 L 75.5 69.75 L 75.34375 62.09375 C 75.27625 58.82125 72.58625 56.2125 69.3125 56.28125 z M 43.3125 56.8125 C 41.6925 56.84625 40.235 57.52 39.1875 58.59375 C 38.14875 59.68625 37.49875 61.155 37.53125 62.78125 L 37.8125 75.625 L 49.59375 75.375 L 49.34375 62.59375 C 49.2775 59.32125 46.58625 56.74625 43.3125 56.8125 z M 30.5 58.375 C 29.6725 58.3925 28.94375 58.7375 28.40625 59.28125 C 27.88125 59.84125 27.5462 60.5775 27.5625 61.40625 L 27.71875 68 L 33.75 67.875 L 33.59375 61.34375 C 33.5575 59.66125 32.18 58.3425 30.5 58.375 z M 95.03125 84.03125 C 91.75625 84.0975 89.15255 86.8225 89.21875 90.09375 L 89.375 97.0625 L 101.21875 96.8125 L 101.09375 89.84375 C 101.0275 86.5725 98.305 83.965 95.03125 84.03125 z M 69.875 84.5625 C 68.72125 84.58375 67.60375 84.70125 66.5625 84.90625 L 66.9375 103.3125 L 70.03125 103.25 L 70.03125 103.3125 L 73.625 103.25 L 73.25 84.78125 C 72.185 84.61125 71.05 84.54 69.875 84.5625 z M 74.03125 84.90625 L 74.40625 103.21875 L 81.15625 103.09375 L 80.875 90.25 C 80.82625 87.775 78.0075 85.71 74.03125 84.90625 z M 43.875 85.09375 C 42.25625 85.1275 40.7975 85.80125 39.75 86.875 C 38.71125 87.9675 38.0913 89.4675 38.125 91.09375 L 38.375 103.90625 L 50.1875 103.65625 L 49.9375 90.90625 C 49.86875 87.635 47.14875 85.0275 43.875 85.09375 z M 65.75 85.09375 C 63.3225 85.69 61.36375 86.72875 60.21875 88.03125 C 59.5375 88.8275 59.1687 89.7275 59.1875 90.65625 L 59.4375 103.46875 L 66.125 103.34375 L 65.75 85.09375 z M 31.0625 85.34375 C 30.23625 85.3625 29.475 85.7075 28.9375 86.25 C 28.4125 86.81 28.1075 87.57875 28.125 88.40625 L 28.25 95 L 34.28125 94.875 L 34.15625 88.34375 C 34.12125 86.6625 32.7425 85.31125 31.0625 85.34375 z M 106.4375 105.75 L 84.53125 106.21875 L 84.78125 119.40625 L 106.71875 118.9375 L 106.4375 105.75 z M 81.21875 106.28125 L 59.5 106.71875 L 59.75 118.71875 C 66.99875 118.90625 74.22625 119.21375 81.46875 119.53125 L 81.21875 106.28125 z M 34.59375 109.53125 L 28.5625 109.65625 L 28.75 118.40625 C 30.76125 118.40125 32.77 118.40625 34.78125 118.40625 L 34.59375 109.53125 z "
       transform="matrix(0.8,0,0,-0.8,239.43854,576.27297)"
       id="rect4850" /><g
       id="g3692"
       transform="translate(10.762498,1.3623955)"><g
         id="g3694" /><g
         id="g3700"><g
           clip-path="url(#clipPath3696)"
           id="g3702"><g
             transform="translate(380.1558,471.6768)"
             id="g3704" /></g></g></g><path
       id="path4338"
       transform="matrix(0.8,0,0,-0.8,239.43854,576.27297)"
       d="M 0 0 L 0 140 L 140 140 L 140 0 L 0 0 z M 93.375 11.71875 L 93.40625 11.71875 C 93.954238 11.724371 94.396438 12.161911 94.40625 12.71875 C 94.41125 12.935 94.33375 13.1425 94.21875 13.3125 C 94.8625 14.2175 95.37875 16.1425 95.53125 18.4375 L 98.09375 18.375 L 98.15625 19.28125 L 96.75 19.3125 L 110.21875 51.25 L 114.875 51.15625 L 116.53125 128.3125 C 115.7187 128.2985 114.90627 128.29505 114.09375 128.28125 C 89.05375 127.84875 64.0375 127.47625 39.03125 127.25 C 34.37362 127.1811 29.71878 127.17395 25.0625 127.15625 L 23.4375 52.96875 L 31.8125 52.78125 C 32.0925 52.31375 32.3725 51.69875 32.625 51.125 C 32.575 51.0925 32.5412 51.0425 32.5 51 C 32.2575 50.765 32.09975 50.435 32.09375 50.0625 C 32.08625 49.6975 32.235 49.36875 32.46875 49.125 C 32.47625 49.1187 32.52425 49.1313 32.53125 49.125 C 32.54245 49.11125 32.51875 49.075 32.53125 49.0625 C 32.76625 48.8175 33.10375 48.66125 33.46875 48.65625 C 33.46875 48.65625 38.7725 47.3225 45.3125 47.1875 C 51.8525 47.055 57.1875 48.1875 57.1875 48.1875 C 57.55375 48.17875 57.88 48.32625 58.125 48.5625 C 58.37125 48.79625 58.52225 49.13375 58.53125 49.5 C 58.5375 49.83875 58.42375 50.135 58.21875 50.375 L 58.84375 52.25 L 70.03125 52 L 70.03125 52.0625 L 79 51.875 L 90.15625 19.46875 L 88.9375 19.46875 L 88.9375 18.5625 L 91.5 18.5 C 91.55875 16.1975 91.99125 14.27375 92.59375 13.34375 C 92.47495 13.18 92.40825 12.97 92.40625 12.75 C 92.395211 12.196841 92.825109 11.748349 93.375 11.71875 z M 88.40625 19.96875 L 78.4375 48.84375 L 60.28125 49.3125 L 59.625 47.4375 C 59.83 47.1975 59.97575 46.90125 59.96875 46.5625 C 59.96125 46.19625 59.80875 45.85875 59.5625 45.625 C 59.3175 45.39 58.96 45.2425 58.59375 45.25 C 58.59375 45.25 51.79 44.15 45.25 44.28125 C 38.71 44.4175 32.0625 46.15625 32.0625 46.15625 C 31.6975 46.1625 31.36 46.3175 31.125 46.5625 C 30.89125 46.805 30.741 47.13625 30.75 47.5 C 30.755 47.87375 30.9125 48.20375 31.15625 48.4375 C 31.1975 48.48125 30.2 48.75 30.25 48.78125 C 29.9875 49.37625 30.69375 49.34125 30.40625 49.8125 L 26.46875 50 L 32.40625 20.0625 L 88.40625 19.96875 z M 99.15625 20.0625 L 107.4375 20.0625 L 113.28125 48.21875 L 111.09375 48.28125 L 99.15625 20.0625 z M 94.4375 55.75 C 91.165 55.81875 88.59125 58.5375 88.65625 61.8125 L 88.90625 74.625 L 100.75 74.375 L 100.5 61.5625 C 100.435 58.28625 97.71125 55.68375 94.4375 55.75 z M 69.3125 56.28125 C 67.6925 56.3125 66.235 56.9875 65.1875 58.0625 C 64.15 59.155 63.53 60.65625 63.5625 62.28125 L 63.71875 69.9375 L 70.03125 69.8125 L 70.03125 69.84375 L 75.5 69.75 L 75.34375 62.09375 C 75.27625 58.82125 72.58625 56.2125 69.3125 56.28125 z M 43.3125 56.8125 C 41.6925 56.84625 40.235 57.52 39.1875 58.59375 C 38.14875 59.68625 37.49875 61.155 37.53125 62.78125 L 37.8125 75.625 L 49.59375 75.375 L 49.34375 62.59375 C 49.2775 59.32125 46.58625 56.74625 43.3125 56.8125 z M 30.5 58.375 C 29.6725 58.3925 28.94375 58.7375 28.40625 59.28125 C 27.88125 59.84125 27.5462 60.5775 27.5625 61.40625 L 27.71875 68 L 33.75 67.875 L 33.59375 61.34375 C 33.5575 59.66125 32.18 58.3425 30.5 58.375 z M 95.03125 84.03125 C 91.75625 84.0975 89.15255 86.8225 89.21875 90.09375 L 89.375 97.0625 L 101.21875 96.8125 L 101.09375 89.84375 C 101.0275 86.5725 98.305 83.965 95.03125 84.03125 z M 69.875 84.5625 C 68.72125 84.58375 67.60375 84.70125 66.5625 84.90625 L 66.9375 103.3125 L 70.03125 103.25 L 70.03125 103.3125 L 73.625 103.25 L 73.25 84.78125 C 72.185 84.61125 71.05 84.54 69.875 84.5625 z M 74.03125 84.90625 L 74.40625 103.21875 L 81.15625 103.09375 L 80.875 90.25 C 80.82625 87.775 78.0075 85.71 74.03125 84.90625 z M 43.875 85.09375 C 42.25625 85.1275 40.7975 85.80125 39.75 86.875 C 38.71125 87.9675 38.0913 89.4675 38.125 91.09375 L 38.375 103.90625 L 50.1875 103.65625 L 49.9375 90.90625 C 49.86875 87.635 47.14875 85.0275 43.875 85.09375 z M 65.75 85.09375 C 63.3225 85.69 61.36375 86.72875 60.21875 88.03125 C 59.5375 88.8275 59.1687 89.7275 59.1875 90.65625 L 59.4375 103.46875 L 66.125 103.34375 L 65.75 85.09375 z M 31.0625 85.34375 C 30.23625 85.3625 29.475 85.7075 28.9375 86.25 C 28.4125 86.81 28.1075 87.57875 28.125 88.40625 L 28.25 95 L 34.28125 94.875 L 34.15625 88.34375 C 34.12125 86.6625 32.7425 85.31125 31.0625 85.34375 z M 106.4375 105.75 L 84.53125 106.21875 L 84.78125 119.40625 L 106.71875 118.9375 L 106.4375 105.75 z M 81.21875 106.28125 L 59.5 106.71875 L 59.75 118.71875 C 66.99875 118.90625 74.22625 119.21375 81.46875 119.53125 L 81.21875 106.28125 z M 34.59375 109.53125 L 28.5625 109.65625 L 28.75 118.40625 C 30.76125 118.40125 32.77 118.40625 34.78125 118.40625 L 34.59375 109.53125 z "
       style="fill:#ffffff;fill-opacity:1;stroke:none;" /></g></svg>